<svg version="1.1" id="Layer_1" xmlns="http://www.w3.org/2000/svg" xmlns:xlink="http://www.w3.org/1999/xlink" x="0px" y="0px"
	 width="100%" viewBox="0 0 1959 2048" enable-background="new 0 0 1959 2048" xml:space="preserve">
<path fill="#060807" opacity="0" stroke="none" 
	d="
M1219.000000,2049.000000 
	C812.666687,2049.000000 406.833344,2049.000000 1.000000,2049.000000 
	C1.000000,1366.333374 1.000000,683.666687 1.000000,1.000000 
	C654.000000,1.000000 1307.000000,1.000000 1960.000000,1.000000 
	C1960.000000,683.666687 1960.000000,1366.333374 1960.000000,2049.000000 
	C1713.166626,2049.000000 1466.333374,2049.000000 1219.000000,2049.000000 
M1040.711304,908.201050 
	C1042.854980,906.675964 1044.859619,904.887756 1047.164795,903.668030 
	C1063.211914,895.177063 1077.459351,884.387390 1088.942017,870.285278 
	C1102.466553,853.675476 1111.618042,834.942810 1115.999878,813.814270 
	C1122.270630,783.578125 1118.220703,754.673096 1104.188354,727.525757 
	C1092.186157,704.305969 1074.418945,686.114746 1051.233032,673.490479 
	C1025.671143,659.572693 998.372375,654.286011 969.731750,658.688843 
	C939.005066,663.412292 912.792603,677.271301 891.806091,700.658813 
	C875.108521,719.266724 864.445862,740.893127 860.460571,765.349548 
	C856.633667,788.834106 858.496033,812.144836 867.375488,834.574036 
	C878.623657,862.986511 897.575684,884.695862 923.901672,900.117249 
	C928.528748,902.827698 932.845093,906.068909 936.678650,909.598022 
	C928.808228,910.591248 920.894470,911.326660 913.077576,912.638794 
	C901.709656,914.547119 890.405396,916.839050 879.085999,919.029724 
	C871.961182,920.408691 864.481506,920.942871 857.830017,923.557678 
	C846.551514,927.991455 834.821716,931.454773 825.010681,939.431152 
	C811.537048,950.385315 814.049255,962.200745 824.698242,970.497437 
	C834.059204,977.790649 844.910156,982.783630 856.708435,985.335571 
	C874.323242,989.145630 891.785339,993.885071 909.555481,996.687744 
	C925.379333,999.183472 941.526550,1000.587769 957.543335,1000.698486 
	C989.018372,1000.916016 1020.503479,1002.052673 1051.981079,998.316528 
	C1064.394897,996.843140 1076.871582,995.699890 1089.097778,993.215210 
	C1102.270386,990.538208 1115.539795,988.157715 1128.134155,982.903381 
	C1136.497437,979.414307 1144.905029,976.305359 1152.281982,970.845154 
	C1163.010620,962.904358 1164.626465,949.432373 1155.164429,940.059814 
	C1152.033325,936.958313 1147.609863,934.878662 1143.433228,933.175598 
	C1135.102295,929.778503 1126.608521,926.730774 1118.040405,923.979736 
	C1110.208984,921.465210 1102.236084,919.345337 1094.239502,917.406433 
	C1088.463257,916.005859 1082.570801,915.020264 1076.685547,914.150208 
	C1069.176392,913.039978 1061.611328,912.312073 1054.091919,911.264954 
	C1049.558228,910.633606 1045.065430,909.708801 1040.711304,908.201050 
M844.439880,461.067261 
	C830.804382,468.890442 817.182190,476.737000 803.530884,484.532440 
	C766.118774,505.896332 728.673035,527.201599 691.281067,548.600647 
	C657.662354,567.840149 624.086060,587.153809 590.511536,606.470398 
	C555.236267,626.765381 519.997559,647.123840 484.720184,667.415100 
	C450.416992,687.146118 416.083008,706.823608 381.766418,726.531372 
	C361.564667,738.133057 341.370392,749.747742 320.508240,761.738586 
	C322.133453,763.012390 323.249207,764.135193 324.574890,764.888611 
	C343.559570,775.677490 362.584961,786.394775 381.575653,797.173096 
	C405.870331,810.961792 430.184845,824.716858 454.366302,838.701660 
	C457.128448,840.299133 458.875763,840.269531 461.501099,838.702393 
	C489.907501,821.745239 518.380554,804.899658 546.857971,788.061829 
	C587.039490,764.303772 627.276917,740.640076 667.421570,716.819885 
	C704.991333,694.527588 742.449524,672.047241 779.997559,649.718262 
	C812.386780,630.456970 844.818176,611.266296 877.259094,592.092163 
	C907.756042,574.066956 938.262939,556.057678 968.879089,538.236572 
	C970.601990,537.233704 973.850708,537.124207 975.559631,538.080872 
	C1009.232117,556.930786 1042.809814,575.950806 1076.348877,595.037964 
	C1115.779541,617.478088 1155.134277,640.051941 1194.560425,662.500244 
	C1233.540527,684.694458 1272.597900,706.753296 1311.567505,728.966064 
	C1347.501709,749.448730 1383.343140,770.094482 1419.265869,790.597168 
	C1445.262451,805.434570 1471.312622,820.178223 1497.377930,834.894775 
	C1500.052490,836.404907 1502.647827,837.671814 1506.096558,835.675964 
	C1526.563843,823.831543 1547.182251,812.248840 1567.738159,800.557556 
	C1585.703491,790.339600 1603.664551,780.113770 1621.604004,769.850281 
	C1627.705566,766.359375 1633.735229,762.743042 1640.352417,758.858459 
	C1622.154419,748.300842 1604.719604,738.249268 1587.346069,728.092957 
	C1556.216187,709.895142 1525.120483,691.638916 1494.015747,673.398254 
	C1463.165283,655.306702 1432.359253,637.138733 1401.422241,619.196594 
	C1397.876465,617.140137 1396.685547,614.855225 1396.692749,610.875305 
	C1396.797241,553.378479 1396.754761,495.881378 1396.747681,438.384369 
	C1396.747559,436.624664 1396.747681,434.864960 1396.747681,433.011383 
	C1352.670654,433.011383 1309.270142,433.011383 1265.493652,433.011383 
	C1265.493652,434.872803 1265.493530,436.349792 1265.493652,437.826782 
	C1265.500122,499.824768 1265.507080,561.822754 1265.511963,623.820740 
	C1265.512207,627.151367 1265.737671,630.504761 1265.424316,633.806396 
	C1265.084106,637.390503 1263.947021,640.162476 1259.109741,639.331970 
	C1256.072144,638.810547 1252.819092,639.524780 1249.664185,639.709961 
	C1242.333252,640.140076 1241.595337,639.474854 1241.595581,632.182007 
	C1241.596558,600.183044 1241.580811,568.184021 1241.659424,536.185242 
	C1241.667358,532.972839 1241.176880,530.786255 1237.913818,528.946777 
	C1213.685547,515.289246 1189.600830,501.376892 1165.491577,487.508759 
	C1133.923828,469.350311 1102.387573,451.137268 1070.814331,432.988434 
	C1042.251831,416.570099 1013.684082,400.159973 985.010864,383.936615 
	C983.323792,382.982056 980.213684,382.893494 978.546936,383.814972 
	C965.929932,390.790466 953.527710,398.153320 941.020752,405.329559 
	C923.213745,415.546875 905.342163,425.651855 887.559509,435.911163 
	C873.358582,444.104095 859.249268,452.455719 844.439880,461.067261 
M1503.611572,1109.502686 
	C1503.591187,1036.845215 1503.563965,964.187683 1503.557495,891.530151 
	C1503.556519,879.866699 1503.576904,868.202393 1503.727173,856.540222 
	C1503.801270,850.786011 1502.599121,849.954346 1497.364746,852.643616 
	C1496.477417,853.099548 1495.630127,853.633240 1494.762207,854.127136 
	C1479.316772,862.915100 1463.900391,871.754639 1448.418091,880.477234 
	C1428.129883,891.907349 1407.761475,903.195190 1387.481934,914.640686 
	C1374.458740,921.990845 1361.569336,929.577454 1348.556519,936.946289 
	C1327.158203,949.063538 1305.693115,961.062927 1284.284668,973.162476 
	C1261.706421,985.923157 1239.176025,998.768433 1216.598022,1011.529541 
	C1192.002930,1025.430664 1167.358154,1039.243774 1142.771362,1053.159302 
	C1124.975586,1063.231323 1107.282227,1073.484741 1089.464600,1083.517578 
	C1068.747192,1095.183228 1047.867554,1106.563354 1027.238403,1118.381470 
	C1022.771606,1120.940308 1017.563965,1122.538818 1017.803467,1130.415527 
	C1018.724854,1160.714478 1018.727600,1191.044800 1018.852783,1221.364258 
	C1019.277405,1324.180298 1019.616638,1426.996704 1019.966370,1529.812988 
	C1020.025330,1547.145630 1019.953430,1564.478638 1019.979309,1581.811401 
	C1020.022217,1610.476318 1020.098816,1639.141357 1020.153442,1667.806274 
	C1020.165710,1674.240479 1021.115662,1674.990723 1026.509521,1671.894531 
	C1040.765625,1663.710815 1054.916382,1655.343872 1069.101929,1647.037231 
	C1083.731445,1638.470825 1098.318726,1629.831299 1112.987549,1621.332642 
	C1126.218994,1613.666748 1139.593994,1606.247925 1152.800415,1598.539917 
	C1169.317505,1588.899658 1185.679443,1578.993408 1202.199219,1569.357788 
	C1213.376343,1562.838623 1224.763916,1556.680664 1235.960815,1550.194458 
	C1250.326538,1541.873047 1264.556030,1533.316284 1278.918213,1524.988647 
	C1291.859863,1517.484741 1304.929077,1510.200928 1317.881470,1502.715454 
	C1321.605591,1500.563232 1321.515259,1499.007812 1317.949707,1496.712646 
	C1301.174438,1485.913940 1284.413696,1475.092773 1267.626343,1464.312988 
	C1254.494019,1455.880371 1241.413086,1447.361450 1228.091431,1439.238037 
	C1226.123047,1438.037720 1222.413818,1437.795776 1220.431152,1438.847290 
	C1212.363037,1443.126831 1204.664917,1448.101196 1196.809814,1452.785034 
	C1174.692261,1465.973633 1152.581665,1479.174316 1130.418823,1492.286377 
	C1127.688965,1493.901367 1124.659180,1495.009277 1121.036621,1496.692261 
	C1120.869995,1493.258789 1120.661499,1490.965942 1120.661255,1488.673096 
	C1120.648926,1389.009521 1120.668579,1289.345825 1120.598389,1189.682251 
	C1120.596191,1186.480347 1121.491211,1184.388428 1124.313599,1182.782227 
	C1134.710327,1176.865723 1145.078125,1170.893677 1155.345825,1164.756714 
	C1166.468018,1158.109131 1177.367920,1151.086914 1188.540527,1144.527344 
	C1206.182983,1134.169312 1224.043701,1124.182251 1241.679932,1113.813599 
	C1260.696655,1102.633301 1279.499512,1091.089600 1298.506348,1079.892334 
	C1330.578979,1060.997803 1362.731934,1042.239746 1394.885864,1023.483643 
	C1396.231689,1022.698608 1398.641602,1021.676453 1399.301636,1022.238159 
	C1400.419678,1023.189758 1401.008911,1025.321167 1400.999268,1026.951660 
	C1400.915039,1041.106812 1400.632080,1055.260620 1400.438599,1069.415161 
	C1400.099243,1094.229370 1399.597290,1119.043213 1399.491943,1143.858398 
	C1399.259888,1198.522095 1399.244263,1253.186523 1399.093384,1307.850586 
	C1399.083740,1311.339233 1398.686523,1314.827515 1398.447876,1318.314453 
	C1398.176270,1322.284302 1396.293579,1322.743408 1393.149780,1320.823242 
	C1386.789307,1316.938721 1380.379883,1313.134033 1373.995728,1309.287842 
	C1352.941895,1296.604126 1331.783081,1284.088989 1310.917725,1271.102173 
	C1306.071655,1268.085938 1302.343750,1268.173584 1297.643677,1270.885742 
	C1267.883301,1288.058105 1238.014648,1305.042725 1208.202637,1322.125732 
	C1202.571411,1325.352539 1202.500732,1326.338623 1207.952881,1329.684448 
	C1223.521851,1339.238403 1239.151489,1348.694092 1254.789185,1358.135742 
	C1278.985962,1372.744751 1303.185425,1387.349731 1327.427979,1401.882935 
	C1352.219849,1416.745361 1377.149414,1431.380859 1401.809204,1446.458496 
	C1406.291138,1449.198853 1409.704834,1448.773560 1413.707153,1446.341431 
	C1440.536011,1430.039795 1467.250488,1413.541626 1494.334106,1397.673706 
	C1501.287842,1393.599609 1503.723755,1389.042725 1503.701416,1380.990479 
	C1503.452026,1290.828125 1503.609009,1200.664673 1503.611572,1109.502686 
M459.064758,855.849854 
	C459.064758,956.655457 459.070038,1057.461060 459.062927,1158.266602 
	C459.058228,1224.426147 459.030762,1290.585815 459.026917,1356.745361 
	C459.026398,1365.576172 459.190460,1374.407837 459.112305,1383.237549 
	C459.070770,1387.931763 461.154205,1390.750732 465.223938,1393.128174 
	C492.230652,1408.906006 519.087097,1424.940918 546.024719,1440.837280 
	C551.499695,1444.068115 557.112305,1447.065796 563.500610,1450.640625 
	C563.724182,1447.700806 563.952759,1446.090820 563.953430,1444.480835 
	C563.967712,1411.317871 563.942017,1378.155029 563.953552,1344.992065 
	C563.965271,1311.162842 563.975464,1277.333374 564.068848,1243.504395 
	C564.085510,1237.476685 565.474976,1236.791016 570.375549,1239.641235 
	C596.272522,1254.703613 622.172241,1269.761230 648.108521,1284.755737 
	C689.597473,1308.741943 731.122803,1332.665039 772.618896,1356.638672 
	C793.070740,1368.454346 813.533203,1380.253296 833.850403,1392.296875 
	C835.547302,1393.302612 837.025513,1396.072632 837.138306,1398.104492 
	C837.543884,1405.414429 837.330872,1412.759277 837.332642,1420.090942 
	C837.347717,1482.083496 837.316711,1544.076172 837.537048,1606.067993 
	C837.545166,1608.345459 839.430725,1611.592407 841.401123,1612.740723 
	C871.726562,1630.414795 902.212646,1647.813354 932.657227,1665.283081 
	C935.281311,1666.788818 937.875793,1668.346313 941.274536,1670.344360 
	C941.764343,1667.231567 942.328186,1665.321289 942.324158,1663.412476 
	C942.286560,1645.609985 942.059692,1627.807617 942.058838,1610.005249 
	C942.051208,1450.355957 942.048706,1290.706543 942.224487,1131.057373 
	C942.230347,1125.758545 940.375732,1123.060425 936.003662,1120.479736 
	C907.779602,1103.819702 879.734863,1086.856079 851.591370,1070.059082 
	C847.414734,1067.566284 843.027405,1065.426514 837.216064,1062.306519 
	C837.216064,1134.917114 837.216064,1205.825684 837.216064,1277.902100 
	C833.874756,1276.223389 831.787537,1275.292236 829.812317,1274.164795 
	C795.143616,1254.375977 760.478516,1234.580933 725.833740,1214.750366 
	C698.246399,1198.959595 670.695251,1183.105713 643.113647,1167.305054 
	C618.579041,1153.250000 594.051208,1139.182617 569.452087,1125.241211 
	C565.540771,1123.024414 563.860962,1120.281494 563.925354,1115.644897 
	C564.158875,1098.816895 563.976746,1081.983398 563.978760,1065.151978 
	C563.984924,1013.491211 563.989807,961.830444 564.046082,910.169739 
	C564.050232,906.342773 563.801270,903.127441 559.645813,901.100708 
	C547.091492,894.977783 534.679016,888.562744 522.239685,882.205750 
	C502.834778,872.289062 483.423309,862.384155 464.089966,852.329285 
	C460.672455,850.551941 459.166382,851.041260 459.064758,855.849854 
z"/>
<path fill="#FEFEFE" opacity="1.000000" stroke="none" 
	d="
M844.769531,460.902100 
	C859.249268,452.455719 873.358582,444.104095 887.559509,435.911163 
	C905.342163,425.651855 923.213745,415.546875 941.020752,405.329559 
	C953.527710,398.153320 965.929932,390.790466 978.546936,383.814972 
	C980.213684,382.893494 983.323792,382.982056 985.010864,383.936615 
	C1013.684082,400.159973 1042.251831,416.570099 1070.814331,432.988434 
	C1102.387573,451.137268 1133.923828,469.350311 1165.491577,487.508759 
	C1189.600830,501.376892 1213.685547,515.289246 1237.913818,528.946777 
	C1241.176880,530.786255 1241.667358,532.972839 1241.659424,536.185242 
	C1241.580811,568.184021 1241.596558,600.183044 1241.595581,632.182007 
	C1241.595337,639.474854 1242.333252,640.140076 1249.664185,639.709961 
	C1252.819092,639.524780 1256.072144,638.810547 1259.109741,639.331970 
	C1263.947021,640.162476 1265.084106,637.390503 1265.424316,633.806396 
	C1265.737671,630.504761 1265.512207,627.151367 1265.511963,623.820740 
	C1265.507080,561.822754 1265.500122,499.824768 1265.493652,437.826782 
	C1265.493530,436.349792 1265.493652,434.872803 1265.493652,433.011383 
	C1309.270142,433.011383 1352.670654,433.011383 1396.747681,433.011383 
	C1396.747681,434.864960 1396.747559,436.624664 1396.747681,438.384369 
	C1396.754761,495.881378 1396.797241,553.378479 1396.692749,610.875305 
	C1396.685547,614.855225 1397.876465,617.140137 1401.422241,619.196594 
	C1432.359253,637.138733 1463.165283,655.306702 1494.015747,673.398254 
	C1525.120483,691.638916 1556.216187,709.895142 1587.346069,728.092957 
	C1604.719604,738.249268 1622.154419,748.300842 1640.352417,758.858459 
	C1633.735229,762.743042 1627.705566,766.359375 1621.604004,769.850281 
	C1603.664551,780.113770 1585.703491,790.339600 1567.738159,800.557556 
	C1547.182251,812.248840 1526.563843,823.831543 1506.096558,835.675964 
	C1502.647827,837.671814 1500.052490,836.404907 1497.377930,834.894775 
	C1471.312622,820.178223 1445.262451,805.434570 1419.265869,790.597168 
	C1383.343140,770.094482 1347.501709,749.448730 1311.567505,728.966064 
	C1272.597900,706.753296 1233.540527,684.694458 1194.560425,662.500244 
	C1155.134277,640.051941 1115.779541,617.478088 1076.348877,595.037964 
	C1042.809814,575.950806 1009.232117,556.930786 975.559631,538.080872 
	C973.850708,537.124207 970.601990,537.233704 968.879089,538.236572 
	C938.262939,556.057678 907.756042,574.066956 877.259094,592.092163 
	C844.818176,611.266296 812.386780,630.456970 779.997559,649.718262 
	C742.449524,672.047241 704.991333,694.527588 667.421570,716.819885 
	C627.276917,740.640076 587.039490,764.303772 546.857971,788.061829 
	C518.380554,804.899658 489.907501,821.745239 461.501099,838.702393 
	C458.875763,840.269531 457.128448,840.299133 454.366302,838.701660 
	C430.184845,824.716858 405.870331,810.961792 381.575653,797.173096 
	C362.584961,786.394775 343.559570,775.677490 324.574890,764.888611 
	C323.249207,764.135193 322.133453,763.012390 320.508240,761.738586 
	C341.370392,749.747742 361.564667,738.133057 381.766418,726.531372 
	C416.083008,706.823608 450.416992,687.146118 484.720184,667.415100 
	C519.997559,647.123840 555.236267,626.765381 590.511536,606.470398 
	C624.086060,587.153809 657.662354,567.840149 691.281067,548.600647 
	C728.673035,527.201599 766.118774,505.896332 803.530884,484.532440 
	C817.182190,476.737000 830.804382,468.890442 844.769531,460.902100 
z"/>
<path fill="#010BF6" opacity="1.000000" stroke="none" 
	d="
M1503.634033,1110.002197 
	C1503.609009,1200.664673 1503.452026,1290.828125 1503.701416,1380.990479 
	C1503.723755,1389.042725 1501.287842,1393.599609 1494.334106,1397.673706 
	C1467.250488,1413.541626 1440.536011,1430.039795 1413.707153,1446.341431 
	C1409.704834,1448.773560 1406.291138,1449.198853 1401.809204,1446.458496 
	C1377.149414,1431.380859 1352.219849,1416.745361 1327.427979,1401.882935 
	C1303.185425,1387.349731 1278.985962,1372.744751 1254.789185,1358.135742 
	C1239.151489,1348.694092 1223.521851,1339.238403 1207.952881,1329.684448 
	C1202.500732,1326.338623 1202.571411,1325.352539 1208.202637,1322.125732 
	C1238.014648,1305.042725 1267.883301,1288.058105 1297.643677,1270.885742 
	C1302.343750,1268.173584 1306.071655,1268.085938 1310.917725,1271.102173 
	C1331.783081,1284.088989 1352.941895,1296.604126 1373.995728,1309.287842 
	C1380.379883,1313.134033 1386.789307,1316.938721 1393.149780,1320.823242 
	C1396.293579,1322.743408 1398.176270,1322.284302 1398.447876,1318.314453 
	C1398.686523,1314.827515 1399.083740,1311.339233 1399.093384,1307.850586 
	C1399.244263,1253.186523 1399.259888,1198.522095 1399.491943,1143.858398 
	C1399.597290,1119.043213 1400.099243,1094.229370 1400.438599,1069.415161 
	C1400.632080,1055.260620 1400.915039,1041.106812 1400.999268,1026.951660 
	C1401.008911,1025.321167 1400.419678,1023.189758 1399.301636,1022.238159 
	C1398.641602,1021.676453 1396.231689,1022.698608 1394.885864,1023.483643 
	C1362.731934,1042.239746 1330.578979,1060.997803 1298.506348,1079.892334 
	C1279.499512,1091.089600 1260.696655,1102.633301 1241.679932,1113.813599 
	C1224.043701,1124.182251 1206.182983,1134.169312 1188.540527,1144.527344 
	C1177.367920,1151.086914 1166.468018,1158.109131 1155.345825,1164.756714 
	C1145.078125,1170.893677 1134.710327,1176.865723 1124.313599,1182.782227 
	C1121.491211,1184.388428 1120.596191,1186.480347 1120.598389,1189.682251 
	C1120.668579,1289.345825 1120.648926,1389.009521 1120.661255,1488.673096 
	C1120.661499,1490.965942 1120.869995,1493.258789 1121.036621,1496.692261 
	C1124.659180,1495.009277 1127.688965,1493.901367 1130.418823,1492.286377 
	C1152.581665,1479.174316 1174.692261,1465.973633 1196.809814,1452.785034 
	C1204.664917,1448.101196 1212.363037,1443.126831 1220.431152,1438.847290 
	C1222.413818,1437.795776 1226.123047,1438.037720 1228.091431,1439.238037 
	C1241.413086,1447.361450 1254.494019,1455.880371 1267.626343,1464.312988 
	C1284.413696,1475.092773 1301.174438,1485.913940 1317.949707,1496.712646 
	C1321.515259,1499.007812 1321.605591,1500.563232 1317.881470,1502.715454 
	C1304.929077,1510.200928 1291.859863,1517.484741 1278.918213,1524.988647 
	C1264.556030,1533.316284 1250.326538,1541.873047 1235.960815,1550.194458 
	C1224.763916,1556.680664 1213.376343,1562.838623 1202.199219,1569.357788 
	C1185.679443,1578.993408 1169.317505,1588.899658 1152.800415,1598.539917 
	C1139.593994,1606.247925 1126.218994,1613.666748 1112.987549,1621.332642 
	C1098.318726,1629.831299 1083.731445,1638.470825 1069.101929,1647.037231 
	C1054.916382,1655.343872 1040.765625,1663.710815 1026.509521,1671.894531 
	C1021.115662,1674.990723 1020.165710,1674.240479 1020.153442,1667.806274 
	C1020.098816,1639.141357 1020.022217,1610.476318 1019.979309,1581.811401 
	C1019.953430,1564.478638 1020.025330,1547.145630 1019.966370,1529.812988 
	C1019.616638,1426.996704 1019.277405,1324.180298 1018.852783,1221.364258 
	C1018.727600,1191.044800 1018.724854,1160.714478 1017.803467,1130.415527 
	C1017.563965,1122.538818 1022.771606,1120.940308 1027.238403,1118.381470 
	C1047.867554,1106.563354 1068.747192,1095.183228 1089.464600,1083.517578 
	C1107.282227,1073.484741 1124.975586,1063.231323 1142.771362,1053.159302 
	C1167.358154,1039.243774 1192.002930,1025.430664 1216.598022,1011.529541 
	C1239.176025,998.768433 1261.706421,985.923157 1284.284668,973.162476 
	C1305.693115,961.062927 1327.158203,949.063538 1348.556519,936.946289 
	C1361.569336,929.577454 1374.458740,921.990845 1387.481934,914.640686 
	C1407.761475,903.195190 1428.129883,891.907349 1448.418091,880.477234 
	C1463.900391,871.754639 1479.316772,862.915100 1494.762207,854.127136 
	C1495.630127,853.633240 1496.477417,853.099548 1497.364746,852.643616 
	C1502.599121,849.954346 1503.801270,850.786011 1503.727173,856.540222 
	C1503.576904,868.202393 1503.556519,879.866699 1503.557495,891.530151 
	C1503.563965,964.187683 1503.591187,1036.845215 1503.634033,1110.002197 
z"/>
<path fill="#FA0103" opacity="1.000000" stroke="none" 
	d="
M459.083252,855.404541 
	C459.166382,851.041260 460.672455,850.551941 464.089966,852.329285 
	C483.423309,862.384155 502.834778,872.289062 522.239685,882.205750 
	C534.679016,888.562744 547.091492,894.977783 559.645813,901.100708 
	C563.801270,903.127441 564.050232,906.342773 564.046082,910.169739 
	C563.989807,961.830444 563.984924,1013.491211 563.978760,1065.151978 
	C563.976746,1081.983398 564.158875,1098.816895 563.925354,1115.644897 
	C563.860962,1120.281494 565.540771,1123.024414 569.452087,1125.241211 
	C594.051208,1139.182617 618.579041,1153.250000 643.113647,1167.305054 
	C670.695251,1183.105713 698.246399,1198.959595 725.833740,1214.750366 
	C760.478516,1234.580933 795.143616,1254.375977 829.812317,1274.164795 
	C831.787537,1275.292236 833.874756,1276.223389 837.216064,1277.902100 
	C837.216064,1205.825684 837.216064,1134.917114 837.216064,1062.306519 
	C843.027405,1065.426514 847.414734,1067.566284 851.591370,1070.059082 
	C879.734863,1086.856079 907.779602,1103.819702 936.003662,1120.479736 
	C940.375732,1123.060425 942.230347,1125.758545 942.224487,1131.057373 
	C942.048706,1290.706543 942.051208,1450.355957 942.058838,1610.005249 
	C942.059692,1627.807617 942.286560,1645.609985 942.324158,1663.412476 
	C942.328186,1665.321289 941.764343,1667.231567 941.274536,1670.344360 
	C937.875793,1668.346313 935.281311,1666.788818 932.657227,1665.283081 
	C902.212646,1647.813354 871.726562,1630.414795 841.401123,1612.740723 
	C839.430725,1611.592407 837.545166,1608.345459 837.537048,1606.067993 
	C837.316711,1544.076172 837.347717,1482.083496 837.332642,1420.090942 
	C837.330872,1412.759277 837.543884,1405.414429 837.138306,1398.104492 
	C837.025513,1396.072632 835.547302,1393.302612 833.850403,1392.296875 
	C813.533203,1380.253296 793.070740,1368.454346 772.618896,1356.638672 
	C731.122803,1332.665039 689.597473,1308.741943 648.108521,1284.755737 
	C622.172241,1269.761230 596.272522,1254.703613 570.375549,1239.641235 
	C565.474976,1236.791016 564.085510,1237.476685 564.068848,1243.504395 
	C563.975464,1277.333374 563.965271,1311.162842 563.953552,1344.992065 
	C563.942017,1378.155029 563.967712,1411.317871 563.953430,1444.480835 
	C563.952759,1446.090820 563.724182,1447.700806 563.500610,1450.640625 
	C557.112305,1447.065796 551.499695,1444.068115 546.024719,1440.837280 
	C519.087097,1424.940918 492.230652,1408.906006 465.223938,1393.128174 
	C461.154205,1390.750732 459.070770,1387.931763 459.112305,1383.237549 
	C459.190460,1374.407837 459.026398,1365.576172 459.026917,1356.745361 
	C459.030762,1290.585815 459.058228,1224.426147 459.062927,1158.266602 
	C459.070038,1057.461060 459.064758,956.655457 459.083252,855.404541 
z"/>
<path fill="#F00507" opacity="1.000000" stroke="none" 
	d="
M937.304932,909.064941 
	C932.845093,906.068909 928.528748,902.827698 923.901672,900.117249 
	C897.575684,884.695862 878.623657,862.986511 867.375488,834.574036 
	C858.496033,812.144836 856.633667,788.834106 860.460571,765.349548 
	C864.445862,740.893127 875.108521,719.266724 891.806091,700.658813 
	C912.792603,677.271301 939.005066,663.412292 969.731750,658.688843 
	C998.372375,654.286011 1025.671143,659.572693 1051.233032,673.490479 
	C1074.418945,686.114746 1092.186157,704.305969 1104.188354,727.525757 
	C1118.220703,754.673096 1122.270630,783.578125 1115.999878,813.814270 
	C1111.618042,834.942810 1102.466553,853.675476 1088.942017,870.285278 
	C1077.459351,884.387390 1063.211914,895.177063 1047.164795,903.668030 
	C1044.859619,904.887756 1042.854980,906.675964 1040.353760,908.648926 
	C1038.841797,910.265015 1037.687378,911.433228 1036.145508,912.648438 
	C1034.916992,913.262024 1034.075806,913.828674 1033.060303,914.354980 
	C1032.695679,914.716980 1032.505127,915.119446 1032.068359,915.690308 
	C1031.705444,916.019775 1031.588989,916.181030 1031.331299,916.278320 
	C1030.888550,916.370728 1030.727905,916.609131 1030.456543,917.145264 
	C1030.123047,917.566284 1030.041260,917.771606 1029.981079,917.981689 
	C1030.002686,917.986450 1029.967407,917.968445 1029.639038,918.148926 
	C1029.193115,918.549744 1029.075439,918.770142 1028.976807,918.994385 
	C1028.995850,918.998230 1028.965698,918.983582 1028.664795,919.159302 
	C1028.220093,919.517456 1028.076294,919.699951 1027.739258,919.890991 
	C1027.169312,920.389221 1026.792847,920.878967 1026.135010,921.557617 
	C1025.709229,921.920166 1025.564697,922.093872 1025.318481,922.206299 
	C1025.216675,922.145020 1025.275391,922.490051 1024.904663,922.743530 
	C1024.150879,923.452759 1023.767761,923.908569 1023.228516,924.302551 
	C1022.856445,924.577881 1022.640442,924.915039 1022.093750,925.511597 
	C1021.591309,925.992371 1021.419556,926.213684 1021.130737,926.392456 
	C1020.785461,926.516663 1020.697327,926.726379 1020.517334,927.193115 
	C1020.175049,927.586548 1020.064819,927.765869 1019.912964,927.949341 
	C1019.871460,927.953552 1019.817810,928.098450 1019.632935,928.225769 
	C1019.447998,928.353088 1019.194153,928.723450 1019.025452,928.726440 
	C1018.719666,928.980530 1018.582581,929.231567 1018.007935,929.742188 
	C1017.139221,930.519714 1016.708069,931.037598 1016.030457,931.549561 
	C1015.327637,932.563354 1014.871338,933.583069 1014.087036,934.659668 
	C1008.697998,939.762085 1003.650940,944.821899 998.572327,949.849731 
	C992.313538,956.046082 985.078918,956.094116 978.851990,950.011963 
	C973.988281,945.261230 969.128296,940.506775 964.217346,935.436768 
	C963.001648,933.653625 961.835205,932.187744 960.400024,930.332397 
	C959.881104,929.750793 959.630981,929.558655 959.412354,929.233032 
	C959.176208,928.868713 958.940430,928.867371 958.439453,928.744629 
	C957.676147,927.997620 957.209961,927.601440 956.785095,927.051147 
	C956.496643,926.692505 956.166931,926.488037 955.627075,925.956177 
	C953.217041,923.470093 951.017151,921.311340 948.832031,918.985718 
	C948.491882,918.578003 948.136963,918.337219 947.608093,917.855042 
	C947.277039,917.492798 947.119812,917.371948 946.998657,917.169250 
	C947.034607,917.087402 946.752808,917.076965 946.556763,916.867493 
	C946.196228,916.560364 946.031799,916.462708 945.915833,916.268799 
	C945.964355,916.172668 945.634827,916.191223 945.444824,915.921936 
	C945.093262,915.503784 944.931702,915.354858 944.808594,914.964233 
	C944.069031,914.208618 943.291138,913.694641 942.343567,913.039429 
	C942.173889,912.898193 941.740662,912.812378 941.682983,912.514282 
	C940.185181,911.165710 938.745056,910.115295 937.304932,909.064941 
M927.504822,873.022888 
	C935.209473,877.266541 942.513977,882.624207 950.688354,885.559998 
	C985.174133,897.945312 1018.409363,894.937805 1048.627930,873.616394 
	C1079.872437,851.571167 1094.776978,820.723633 1093.581055,782.419434 
	C1092.860107,759.329651 1084.569092,738.934448 1070.110596,721.073853 
	C1053.504883,700.560852 1031.976807,687.964355 1006.009277,683.867126 
	C990.350952,681.396545 974.699219,682.125061 959.076294,686.617249 
	C935.803589,693.308960 917.145630,706.537537 903.458618,725.808289 
	C882.453552,755.382324 877.990967,788.031494 889.702087,822.620667 
	C896.706055,843.306946 909.543030,859.648254 927.504822,873.022888 
z"/>
<path fill="#040655" opacity="1.000000" stroke="none" 
	d="
M1036.532837,912.601501 
	C1037.687378,911.433228 1038.841797,910.265015 1040.275269,909.006348 
	C1045.065430,909.708801 1049.558228,910.633606 1054.091919,911.264954 
	C1061.611328,912.312073 1069.176392,913.039978 1076.685547,914.150208 
	C1082.570801,915.020264 1088.463257,916.005859 1094.239502,917.406433 
	C1102.236084,919.345337 1110.208984,921.465210 1118.040405,923.979736 
	C1126.608521,926.730774 1135.102295,929.778503 1143.433228,933.175598 
	C1147.609863,934.878662 1152.033325,936.958313 1155.164429,940.059814 
	C1164.626465,949.432373 1163.010620,962.904358 1152.281982,970.845154 
	C1144.905029,976.305359 1136.497437,979.414307 1128.134155,982.903381 
	C1115.539795,988.157715 1102.270386,990.538208 1089.097778,993.215210 
	C1076.871582,995.699890 1064.394897,996.843140 1051.981079,998.316528 
	C1020.503479,1002.052673 989.018372,1000.916016 957.543335,1000.698486 
	C941.526550,1000.587769 925.379333,999.183472 909.555481,996.687744 
	C891.785339,993.885071 874.323242,989.145630 856.708435,985.335571 
	C844.910156,982.783630 834.059204,977.790649 824.698242,970.497437 
	C814.049255,962.200745 811.537048,950.385315 825.010681,939.431152 
	C834.821716,931.454773 846.551514,927.991455 857.830017,923.557678 
	C864.481506,920.942871 871.961182,920.408691 879.085999,919.029724 
	C890.405396,916.839050 901.709656,914.547119 913.077576,912.638794 
	C920.894470,911.326660 928.808228,910.591248 936.991821,909.331482 
	C938.745056,910.115295 940.185181,911.165710 941.257568,912.624512 
	C938.892029,913.030090 936.880066,912.869568 934.898621,913.048157 
	C908.734863,915.407043 882.692566,918.797546 857.661743,927.026794 
	C847.376038,930.408386 837.183716,934.926575 828.011230,940.634827 
	C815.313354,948.537048 815.578918,959.865173 827.351685,968.747192 
	C840.234924,978.466980 855.700684,982.314880 870.756409,986.790344 
	C878.819824,989.187256 887.315369,990.365356 895.701721,991.393738 
	C915.297607,993.796692 934.904358,996.953857 954.582031,997.637939 
	C980.674255,998.544983 1006.875061,998.137451 1032.959229,996.863342 
	C1051.796997,995.943176 1070.583618,993.109924 1089.269409,990.305542 
	C1098.889893,988.861633 1108.224487,985.553589 1117.716431,983.201965 
	C1129.451782,980.294312 1140.804321,976.059448 1150.100342,968.414551 
	C1161.248535,959.246582 1162.605835,950.221741 1149.555542,941.067322 
	C1143.813599,937.039429 1137.535522,933.262817 1130.936279,931.076050 
	C1116.952759,926.442566 1102.786133,921.932312 1088.347778,919.212646 
	C1071.267090,915.995178 1053.820679,914.719116 1036.532837,912.601501 
z"/>
<path fill="#0A0808" opacity="1.000000" stroke="none" 
	d="
M927.207397,872.821777 
	C909.543030,859.648254 896.706055,843.306946 889.702087,822.620667 
	C877.990967,788.031494 882.453552,755.382324 903.458618,725.808289 
	C917.145630,706.537537 935.803589,693.308960 959.076294,686.617249 
	C974.699219,682.125061 990.350952,681.396545 1006.009277,683.867126 
	C1031.976807,687.964355 1053.504883,700.560852 1070.110596,721.073853 
	C1084.569092,738.934448 1092.860107,759.329651 1093.581055,782.419434 
	C1094.776978,820.723633 1079.872437,851.571167 1048.627930,873.616394 
	C1018.409363,894.937805 985.174133,897.945312 950.688354,885.559998 
	C942.513977,882.624207 935.209473,877.266541 927.207397,872.821777 
M1000.911438,780.304565 
	C998.412781,780.298889 995.870239,780.565979 993.433716,780.174011 
	C992.191406,779.974182 990.389221,778.781616 990.117981,777.713257 
	C987.505737,767.425354 985.165833,757.068359 982.736328,746.681091 
	C984.250610,746.037292 985.410034,745.544434 986.796570,744.954895 
	C985.084290,741.960876 983.511047,739.257385 981.983154,736.528442 
	C978.607117,730.498840 978.616394,730.493652 972.064880,733.615540 
	C971.802368,738.485779 971.536987,743.409607 971.256653,748.610840 
	C972.994080,748.610840 974.359009,748.610840 975.748962,748.610840 
	C978.177795,759.182556 980.546204,769.491150 982.927734,779.857056 
	C968.167847,781.549744 968.169312,781.548279 958.352600,771.676697 
	C955.887146,769.197449 953.486755,766.645996 950.912170,764.285095 
	C948.679626,762.237976 947.735596,760.143005 948.077332,756.878967 
	C949.026428,747.815857 940.811401,742.250244 932.425110,745.958008 
	C933.804932,750.331360 943.413452,752.249084 936.396179,759.088196 
	C934.890503,760.555664 932.380920,763.039917 931.383789,762.611572 
	C927.925903,761.126160 924.930664,758.563904 921.766724,756.416443 
	C918.075806,764.783630 924.861023,772.951050 930.697998,771.952759 
	C938.095459,770.687622 940.852417,775.693298 945.766907,780.402588 
	C939.459534,780.402588 934.294434,780.402588 929.037048,780.402588 
	C928.983276,784.403687 927.889954,788.115417 932.875427,789.445312 
	C933.584229,789.634338 934.074951,791.891968 934.096558,793.201660 
	C934.231689,801.361816 934.196960,809.524841 934.232971,817.686768 
	C934.264160,824.744019 937.108093,827.705139 944.265686,827.718872 
	C974.082886,827.776245 1003.900391,827.783203 1033.717651,827.740601 
	C1040.466187,827.730957 1043.342896,824.676819 1043.387451,817.882141 
	C1043.442017,809.554443 1043.438843,801.226013 1043.566895,792.899536 
	C1043.585571,791.694336 1043.980591,789.578125 1044.565552,789.441406 
	C1049.897095,788.195496 1048.607056,784.312500 1048.623047,780.074585 
	C1038.195190,780.074585 1028.051147,780.074585 1017.101685,780.074585 
	C1021.450806,774.740540 1025.033325,770.174744 1028.805420,765.771240 
	C1032.238892,761.762939 1039.575928,762.947998 1041.602173,767.709656 
	C1043.576538,772.349426 1047.372192,772.850037 1050.640137,768.889526 
	C1051.805786,767.476868 1053.182373,766.163269 1054.015137,764.570496 
	C1055.008667,762.669922 1056.696655,759.441162 1056.008423,758.690247 
	C1054.363525,756.895691 1051.486816,756.245728 1049.135010,755.078125 
	C1047.676392,754.353882 1045.232422,753.755676 1045.002930,752.711365 
	C1043.326782,745.085388 1036.984375,742.131897 1031.072998,739.780334 
	C1027.131104,738.212280 1022.057678,739.216187 1017.530457,739.573120 
	C1016.307922,739.669495 1015.230225,741.603027 1014.085999,742.693237 
	C1015.052856,743.703369 1015.877075,744.927917 1017.013245,745.683289 
	C1020.411377,747.942505 1023.307617,755.555908 1021.131042,758.149719 
	C1014.843079,765.642883 1008.241028,772.872498 1000.911438,780.304565 
z"/>
<path fill="#040CEF" opacity="1.000000" stroke="none" 
	d="
M1036.145508,912.648438 
	C1053.820679,914.719116 1071.267090,915.995178 1088.347778,919.212646 
	C1102.786133,921.932312 1116.952759,926.442566 1130.936279,931.076050 
	C1137.535522,933.262817 1143.813599,937.039429 1149.555542,941.067322 
	C1162.605835,950.221741 1161.248535,959.246582 1150.100342,968.414551 
	C1140.804321,976.059448 1129.451782,980.294312 1117.716431,983.201965 
	C1108.224487,985.553589 1098.889893,988.861633 1089.269409,990.305542 
	C1070.583618,993.109924 1051.796997,995.943176 1032.959229,996.863342 
	C1006.875061,998.137451 980.674255,998.544983 954.582031,997.637939 
	C934.904358,996.953857 915.297607,993.796692 895.701721,991.393738 
	C887.315369,990.365356 878.819824,989.187256 870.756409,986.790344 
	C855.700684,982.314880 840.234924,978.466980 827.351685,968.747192 
	C815.578918,959.865173 815.313354,948.537048 828.011230,940.634827 
	C837.183716,934.926575 847.376038,930.408386 857.661743,927.026794 
	C882.692566,918.797546 908.734863,915.407043 934.898621,913.048157 
	C936.880066,912.869568 938.892029,913.030090 941.315247,912.922607 
	C941.740662,912.812378 942.173889,912.898193 942.215698,913.319580 
	C943.095032,914.229248 943.932617,914.717590 944.770203,915.205994 
	C944.931702,915.354858 945.093262,915.503784 945.311157,916.046265 
	C945.367493,916.439819 945.654419,916.658325 945.654419,916.658325 
	C945.654419,916.658325 945.867310,916.364990 945.867310,916.364990 
	C946.031799,916.462708 946.196228,916.560364 946.401855,916.987183 
	C946.442993,917.316284 946.736206,917.562988 946.736206,917.562988 
	C946.736206,917.562988 946.962646,917.251099 946.962646,917.251099 
	C947.119812,917.371948 947.277039,917.492798 947.390747,918.060181 
	C947.837280,918.721924 948.327209,918.937317 948.817200,919.152649 
	C951.017151,921.311340 953.217041,923.470093 955.411499,926.128845 
	C955.851929,926.820984 956.297852,927.013123 956.743774,927.205322 
	C957.209961,927.601440 957.676147,927.997620 958.310547,928.913452 
	C958.779480,929.411011 959.080139,929.388733 959.380798,929.366516 
	C959.630981,929.558655 959.881104,929.750793 960.161865,930.594849 
	C959.646057,935.796204 955.976257,934.619751 953.250488,934.912048 
	C936.598694,936.697632 919.836853,937.759888 903.318726,940.372253 
	C893.935120,941.856201 884.786011,945.413330 875.834717,948.831360 
	C870.003113,951.058228 869.548767,957.727966 874.561218,960.551758 
	C877.576721,962.250549 880.774292,963.991516 884.105652,964.700684 
	C898.051758,967.669189 911.976135,971.220337 926.103821,972.730652 
	C942.902893,974.526672 959.898193,974.566772 976.816223,975.141968 
	C988.458008,975.537842 1000.140625,976.137451 1011.755127,975.589355 
	C1027.338501,974.853882 1042.918823,973.481567 1058.416260,971.664978 
	C1071.908569,970.083496 1085.483154,968.333435 1098.140381,962.856506 
	C1101.604980,961.357300 1105.512085,959.698364 1105.731934,955.187622 
	C1105.927612,951.171997 1103.044800,948.825195 1099.601440,947.530823 
	C1095.104492,945.840271 1090.570679,944.030396 1085.888306,943.093933 
	C1075.016357,940.919495 1064.095581,938.835632 1053.100708,937.472107 
	C1042.433350,936.149292 1031.635864,935.900696 1020.929016,934.842102 
	C1019.286072,934.679688 1017.823181,932.696594 1016.276978,931.555542 
	C1016.708069,931.037598 1017.139221,930.519714 1018.214355,929.885010 
	C1018.970337,929.419983 1019.082214,929.071716 1019.194153,928.723450 
	C1019.194153,928.723450 1019.447998,928.353088 1019.762695,928.410278 
	C1020.077393,928.467529 1020.354187,928.128845 1020.354187,928.128845 
	C1020.354187,928.128845 1019.954529,927.945129 1019.954529,927.945129 
	C1020.064819,927.765869 1020.175049,927.586548 1020.677307,927.394165 
	C1021.227600,927.329651 1021.385925,927.278198 1021.544250,927.226746 
	C1021.445435,926.962830 1021.346558,926.698914 1021.247742,926.434998 
	C1021.419556,926.213684 1021.591309,925.992371 1022.249573,925.714478 
	C1022.952209,925.226746 1023.168396,924.795532 1023.384644,924.364380 
	C1023.767761,923.908569 1024.150879,923.452759 1025.021240,922.836304 
	C1025.508545,922.675598 1025.671387,922.428284 1025.671387,922.428284 
	C1025.671387,922.428284 1025.420288,922.267578 1025.420288,922.267578 
	C1025.564697,922.093872 1025.709229,921.920166 1026.351318,921.749695 
	C1027.210205,921.129395 1027.571289,920.505920 1027.932373,919.882446 
	C1028.076294,919.699951 1028.220093,919.517456 1028.707520,919.309692 
	C1029.051270,919.284424 1029.257324,919.062195 1029.257324,919.062195 
	C1029.257324,919.062195 1028.957764,918.990601 1028.957764,918.990601 
	C1029.075439,918.770142 1029.193115,918.549744 1029.677002,918.299805 
	C1030.043213,918.270142 1030.255127,918.056030 1030.255127,918.056030 
	C1030.255127,918.056030 1029.959473,917.976929 1029.959473,917.976929 
	C1030.041260,917.771606 1030.123047,917.566284 1030.618408,917.357788 
	C1031.178833,917.017212 1031.325684,916.679749 1031.472534,916.342224 
	C1031.588989,916.181030 1031.705444,916.019775 1032.290894,915.842896 
	C1032.918091,915.349915 1033.076294,914.872681 1033.234497,914.395386 
	C1034.075806,913.828674 1034.916992,913.262024 1036.145508,912.648438 
z"/>
<path fill="#070709" opacity="1.000000" stroke="none" 
	d="
M964.266602,935.753906 
	C969.128296,940.506775 973.988281,945.261230 978.851990,950.011963 
	C985.078918,956.094116 992.313538,956.046082 998.572327,949.849731 
	C1003.650940,944.821899 1008.697998,939.762085 1014.380310,934.997192 
	C1019.453186,936.149109 1023.869141,937.366455 1028.362671,937.827759 
	C1043.260986,939.357361 1058.187256,940.612976 1073.101929,941.984375 
	C1073.593872,942.029663 1074.091675,942.143250 1074.558838,942.305359 
	C1082.878784,945.192810 1091.239868,947.972839 1099.465088,951.109253 
	C1100.814087,951.623718 1102.157959,953.625305 1102.390503,955.113586 
	C1102.567871,956.248901 1101.275269,958.306946 1100.127197,958.824097 
	C1096.892090,960.281616 1093.444580,961.355652 1089.990967,962.223450 
	C1079.343018,964.899231 1068.771606,968.250977 1057.949951,969.769409 
	C1044.357178,971.676697 1030.555908,972.697388 1016.827209,972.895752 
	C996.549011,973.188660 976.226318,972.982605 955.977417,971.931885 
	C938.650940,971.032837 921.390869,968.744202 904.126953,966.839355 
	C900.594360,966.449646 897.191650,964.966125 893.699036,964.109192 
	C889.710938,963.130676 885.347900,962.965088 881.792480,961.169556 
	C879.049316,959.784119 877.218872,956.490784 875.219055,953.865540 
	C874.978699,953.549988 876.011658,951.585632 876.806885,951.268066 
	C882.906982,948.832703 888.927429,945.778564 895.290283,944.510559 
	C907.417114,942.093994 919.740784,940.631836 932.010498,938.979431 
	C938.570068,938.096069 945.187683,937.643494 951.778809,936.993530 
	C955.941711,936.583008 960.104004,936.167297 964.266602,935.753906 
z"/>
<path fill="#040655" opacity="1.000000" stroke="none" 
	d="
M964.217346,935.436768 
	C960.104004,936.167297 955.941711,936.583008 951.778809,936.993530 
	C945.187683,937.643494 938.570068,938.096069 932.010498,938.979431 
	C919.740784,940.631836 907.417114,942.093994 895.290283,944.510559 
	C888.927429,945.778564 882.906982,948.832703 876.806885,951.268066 
	C876.011658,951.585632 874.978699,953.549988 875.219055,953.865540 
	C877.218872,956.490784 879.049316,959.784119 881.792480,961.169556 
	C885.347900,962.965088 889.710938,963.130676 893.699036,964.109192 
	C897.191650,964.966125 900.594360,966.449646 904.126953,966.839355 
	C921.390869,968.744202 938.650940,971.032837 955.977417,971.931885 
	C976.226318,972.982605 996.549011,973.188660 1016.827209,972.895752 
	C1030.555908,972.697388 1044.357178,971.676697 1057.949951,969.769409 
	C1068.771606,968.250977 1079.343018,964.899231 1089.990967,962.223450 
	C1093.444580,961.355652 1096.892090,960.281616 1100.127197,958.824097 
	C1101.275269,958.306946 1102.567871,956.248901 1102.390503,955.113586 
	C1102.157959,953.625305 1100.814087,951.623718 1099.465088,951.109253 
	C1091.239868,947.972839 1082.878784,945.192810 1074.558838,942.305359 
	C1074.091675,942.143250 1073.593872,942.029663 1073.101929,941.984375 
	C1058.187256,940.612976 1043.260986,939.357361 1028.362671,937.827759 
	C1023.869141,937.366455 1019.453186,936.149109 1014.708374,934.940430 
	C1014.871338,933.583069 1015.327637,932.563354 1016.030457,931.549561 
	C1017.823181,932.696594 1019.286072,934.679688 1020.929016,934.842102 
	C1031.635864,935.900696 1042.433350,936.149292 1053.100708,937.472107 
	C1064.095581,938.835632 1075.016357,940.919495 1085.888306,943.093933 
	C1090.570679,944.030396 1095.104492,945.840271 1099.601440,947.530823 
	C1103.044800,948.825195 1105.927612,951.171997 1105.731934,955.187622 
	C1105.512085,959.698364 1101.604980,961.357300 1098.140381,962.856506 
	C1085.483154,968.333435 1071.908569,970.083496 1058.416260,971.664978 
	C1042.918823,973.481567 1027.338501,974.853882 1011.755127,975.589355 
	C1000.140625,976.137451 988.458008,975.537842 976.816223,975.141968 
	C959.898193,974.566772 942.902893,974.526672 926.103821,972.730652 
	C911.976135,971.220337 898.051758,967.669189 884.105652,964.700684 
	C880.774292,963.991516 877.576721,962.250549 874.561218,960.551758 
	C869.548767,957.727966 870.003113,951.058228 875.834717,948.831360 
	C884.786011,945.413330 893.935120,941.856201 903.318726,940.372253 
	C919.836853,937.759888 936.598694,936.697632 953.250488,934.912048 
	C955.976257,934.619751 959.646057,935.796204 960.430603,930.984253 
	C961.835205,932.187744 963.001648,933.653625 964.217346,935.436768 
z"/>
<path fill="#040655" opacity="1.000000" stroke="none" 
	d="
M944.808594,914.964233 
	C943.932617,914.717590 943.095032,914.229248 942.385376,913.460815 
	C943.291138,913.694641 944.069031,914.208618 944.808594,914.964233 
z"/>
<path fill="#040655" opacity="1.000000" stroke="none" 
	d="
M1027.739136,919.890991 
	C1027.571289,920.505920 1027.210205,921.129395 1026.632568,921.560791 
	C1026.792847,920.878967 1027.169312,920.389221 1027.739136,919.890991 
z"/>
<path fill="#040655" opacity="1.000000" stroke="none" 
	d="
M948.832031,918.985718 
	C948.327209,918.937317 947.837280,918.721924 947.564636,918.301514 
	C948.136963,918.337219 948.491882,918.578003 948.832031,918.985718 
z"/>
<path fill="#040655" opacity="1.000000" stroke="none" 
	d="
M1033.060303,914.354980 
	C1033.076294,914.872681 1032.918091,915.349915 1032.537354,915.674561 
	C1032.505127,915.119446 1032.695679,914.716980 1033.060303,914.354980 
z"/>
<path fill="#040655" opacity="1.000000" stroke="none" 
	d="
M956.785095,927.051147 
	C956.297852,927.013123 955.851929,926.820984 955.621582,926.456177 
	C956.166931,926.488037 956.496643,926.692505 956.785095,927.051147 
z"/>
<path fill="#040655" opacity="1.000000" stroke="none" 
	d="
M1023.228516,924.302490 
	C1023.168396,924.795532 1022.952209,925.226746 1022.580200,925.455078 
	C1022.640442,924.915039 1022.856445,924.577881 1023.228516,924.302490 
z"/>
<path fill="#040655" opacity="1.000000" stroke="none" 
	d="
M1021.130737,926.392456 
	C1021.346558,926.698914 1021.445435,926.962830 1021.544250,927.226746 
	C1021.385925,927.278198 1021.227600,927.329651 1020.909302,927.180054 
	C1020.697327,926.726379 1020.785461,926.516663 1021.130737,926.392456 
z"/>
<path fill="#040655" opacity="1.000000" stroke="none" 
	d="
M959.412354,929.233032 
	C959.080139,929.388733 958.779480,929.411011 958.607666,929.264343 
	C958.940430,928.867371 959.176208,928.868713 959.412354,929.233032 
z"/>
<path fill="#040655" opacity="1.000000" stroke="none" 
	d="
M1019.025452,928.726440 
	C1019.082214,929.071716 1018.970337,929.419983 1018.651978,929.625366 
	C1018.582581,929.231567 1018.719666,928.980530 1019.025452,928.726440 
z"/>
<path fill="#040655" opacity="1.000000" stroke="none" 
	d="
M1031.331299,916.278320 
	C1031.325684,916.679749 1031.178833,917.017212 1030.870117,917.142090 
	C1030.727905,916.609131 1030.888550,916.370728 1031.331299,916.278320 
z"/>
<path fill="#040655" opacity="1.000000" stroke="none" 
	d="
M1025.318481,922.206299 
	C1025.420288,922.267578 1025.671387,922.428284 1025.671387,922.428284 
	C1025.671387,922.428284 1025.508545,922.675598 1025.391968,922.582825 
	C1025.275391,922.490051 1025.216675,922.145020 1025.318481,922.206299 
z"/>
<path fill="#040655" opacity="1.000000" stroke="none" 
	d="
M1019.912964,927.949341 
	C1019.954529,927.945129 1020.354187,928.128845 1020.354187,928.128845 
	C1020.354187,928.128845 1020.077393,928.467529 1019.947632,928.282959 
	C1019.817810,928.098450 1019.871460,927.953552 1019.912964,927.949341 
z"/>
<path fill="#040655" opacity="1.000000" stroke="none" 
	d="
M1028.976807,918.994385 
	C1028.957764,918.990601 1029.257324,919.062195 1029.257324,919.062195 
	C1029.257324,919.062195 1029.051270,919.284424 1029.008545,919.134033 
	C1028.965698,918.983582 1028.995850,918.998230 1028.976807,918.994385 
z"/>
<path fill="#040655" opacity="1.000000" stroke="none" 
	d="
M945.915833,916.268799 
	C945.867310,916.364990 945.654419,916.658325 945.654419,916.658325 
	C945.654419,916.658325 945.367493,916.439819 945.501160,916.315552 
	C945.634827,916.191223 945.964355,916.172668 945.915833,916.268799 
z"/>
<path fill="#040655" opacity="1.000000" stroke="none" 
	d="
M1029.981079,917.981689 
	C1029.959473,917.976929 1030.255127,918.056030 1030.255127,918.056030 
	C1030.255127,918.056030 1030.043213,918.270142 1030.005371,918.119263 
	C1029.967407,917.968445 1030.002686,917.986450 1029.981079,917.981689 
z"/>
<path fill="#040655" opacity="1.000000" stroke="none" 
	d="
M946.998657,917.169250 
	C946.962646,917.251099 946.736206,917.562988 946.736206,917.562988 
	C946.736206,917.562988 946.442993,917.316284 946.597900,917.196655 
	C946.752808,917.076965 947.034607,917.087402 946.998657,917.169250 
z"/>
<path fill="#F8F8F8" opacity="1.000000" stroke="none" 
	d="
M1001.336914,780.255066 
	C1008.241028,772.872498 1014.843079,765.642883 1021.131042,758.149719 
	C1023.307617,755.555908 1020.411377,747.942505 1017.013245,745.683289 
	C1015.877075,744.927917 1015.052856,743.703369 1014.085999,742.693237 
	C1015.230225,741.603027 1016.307922,739.669495 1017.530457,739.573120 
	C1022.057678,739.216187 1027.131104,738.212280 1031.072998,739.780334 
	C1036.984375,742.131897 1043.326782,745.085388 1045.002930,752.711365 
	C1045.232422,753.755676 1047.676392,754.353882 1049.135010,755.078125 
	C1051.486816,756.245728 1054.363525,756.895691 1056.008423,758.690247 
	C1056.696655,759.441162 1055.008667,762.669922 1054.015137,764.570496 
	C1053.182373,766.163269 1051.805786,767.476868 1050.640137,768.889526 
	C1047.372192,772.850037 1043.576538,772.349426 1041.602173,767.709656 
	C1039.575928,762.947998 1032.238892,761.762939 1028.805420,765.771240 
	C1025.033325,770.174744 1021.450806,774.740540 1017.101685,780.074585 
	C1028.051147,780.074585 1038.195190,780.074585 1048.623047,780.074585 
	C1048.607056,784.312500 1049.897095,788.195496 1044.565552,789.441406 
	C1043.980591,789.578125 1043.585571,791.694336 1043.566895,792.899536 
	C1043.438843,801.226013 1043.442017,809.554443 1043.387451,817.882141 
	C1043.342896,824.676819 1040.466187,827.730957 1033.717651,827.740601 
	C1003.900391,827.783203 974.082886,827.776245 944.265686,827.718872 
	C937.108093,827.705139 934.264160,824.744019 934.232971,817.686768 
	C934.196960,809.524841 934.231689,801.361816 934.096558,793.201660 
	C934.074951,791.891968 933.584229,789.634338 932.875427,789.445312 
	C927.889954,788.115417 928.983276,784.403687 929.037048,780.402588 
	C934.294434,780.402588 939.459534,780.402588 945.766907,780.402588 
	C940.852417,775.693298 938.095459,770.687622 930.697998,771.952759 
	C924.861023,772.951050 918.075806,764.783630 921.766724,756.416443 
	C924.930664,758.563904 927.925903,761.126160 931.383789,762.611572 
	C932.380920,763.039917 934.890503,760.555664 936.396179,759.088196 
	C943.413452,752.249084 933.804932,750.331360 932.421143,745.959229 
	C940.811401,742.250244 949.026428,747.815857 948.077332,756.878967 
	C947.735596,760.143005 948.679626,762.237976 950.912170,764.285095 
	C953.486755,766.645996 955.887146,769.197449 958.352600,771.676697 
	C968.169312,781.548279 968.167847,781.549744 982.927734,779.857056 
	C980.546204,769.491150 978.177795,759.182556 975.748962,748.610840 
	C974.359009,748.610840 972.994080,748.610840 971.256653,748.610840 
	C971.536987,743.409607 971.802368,738.485779 972.064880,733.615540 
	C978.616394,730.493652 978.607117,730.498840 981.983154,736.528442 
	C983.511047,739.257385 985.084290,741.960876 986.796570,744.954895 
	C985.410034,745.544434 984.250610,746.037292 982.736328,746.681091 
	C985.165833,757.068359 987.505737,767.425354 990.117981,777.713257 
	C990.389221,778.781616 992.191406,779.974182 993.433716,780.174011 
	C995.870239,780.565979 998.412781,780.298889 1001.336914,780.255066 
z"/>
</svg>