<?xml version="1.0" encoding="utf-8"?>
<!-- Generator: Adobe Illustrator 27.5.0, SVG Export Plug-In . SVG Version: 6.00 Build 0)  -->
<svg version="1.1" xmlns="http://www.w3.org/2000/svg" xmlns:xlink="http://www.w3.org/1999/xlink" x="0px" y="0px"
	 viewBox="0 0 750 500" style="enable-background:new 0 0 750 500;" xml:space="preserve">
<g id="BACKGROUND">
	<rect style="fill:#FFFFFF;" width="750" height="500"/>
</g>
<g id="OBJECTS">
	<g>
		<g>
			<path style="fill:#F8E4CF;" d="M78.7,457.642c0,0-42.896-22.746-33.563-71.352s22.234-61.021,16.117-95.48
				s-59.45-131.493-7.45-183.643s140.899-55.483,194.449-40.15c53.551,15.333,72.884-29.333,123.551-34
				c50.667-4.667,90.667,36.667,124,44c33.333,7.333,92.746-30.667,141.04-4c48.293,26.667,80.293,72.959,65.627,128.479
				c-14.667,55.521-14,96.111,0.667,121.149c14.667,25.038,30.667,88.288-11.333,134.997H78.7z"/>
			<g>
				<circle style="fill:none;stroke:#FFFFFF;stroke-miterlimit:10;stroke-dasharray:3,4;" cx="225.705" cy="151.685" r="59.816"/>
				
					<ellipse transform="matrix(0.7071 -0.7071 0.7071 0.7071 -88.3463 125.6124)" style="fill:none;stroke:#FFFFFF;stroke-miterlimit:10;stroke-dasharray:3,4;" cx="107.454" cy="169.45" rx="47.809" ry="47.809"/>
				
					<ellipse transform="matrix(0.7071 -0.7071 0.7071 0.7071 -132.5939 421.0085)" style="fill:none;stroke:#FFFFFF;stroke-miterlimit:10;stroke-dasharray:3,4;" cx="441.905" cy="370.559" rx="62.617" ry="62.617"/>
				
					<ellipse transform="matrix(0.2356 -0.9719 0.9719 0.2356 113.461 942.0342)" style="fill:none;stroke:#FFFFFF;stroke-miterlimit:10;stroke-dasharray:3,4;" cx="655.569" cy="398.891" rx="22.201" ry="22.201"/>
				
					<ellipse transform="matrix(0.2287 -0.9735 0.9735 0.2287 209.1415 447.6963)" style="fill:none;stroke:#FFFFFF;stroke-miterlimit:10;stroke-dasharray:3,4;" cx="387.09" cy="91.869" rx="22.201" ry="22.201"/>
				
					<ellipse transform="matrix(0.2277 -0.9737 0.9737 0.2277 -127.8597 611.0019)" style="fill:none;stroke:#FFFFFF;stroke-miterlimit:10;stroke-dasharray:3,4;" cx="321.251" cy="386.105" rx="37.314" ry="37.314"/>
				
					<ellipse transform="matrix(0.4721 -0.8816 0.8816 0.4721 74.3653 615.039)" style="fill:none;stroke:#FFFFFF;stroke-miterlimit:10;stroke-dasharray:3,4;" cx="550.705" cy="245.429" rx="45.375" ry="45.375"/>
				<circle style="fill:none;stroke:#FFFFFF;stroke-miterlimit:10;stroke-dasharray:3,4;" cx="483.855" cy="176.536" r="65.257"/>
			</g>
			<g>
				<g>
					
						<ellipse transform="matrix(0.8935 -0.4491 0.4491 0.8935 -43.8846 331.339)" style="fill:#DEC5AB;" cx="676.535" cy="258.18" rx="21.832" ry="21.832"/>
					<polyline style="fill:none;stroke:#F8E4CF;stroke-width:3;stroke-miterlimit:10;" points="676.535,244.833 676.535,258.18 
						685.759,251.125 					"/>
				</g>
				<g>
					<g>
						<path style="fill:#DEC5AB;" d="M85.975,408.911v4.868h-4.346v-4.737c-4.303-0.261-8.433-1.608-10.824-3.478l2.391-5.303
							c2.173,1.608,5.303,2.782,8.433,3.086v-7.259c-4.825-1.173-10.215-2.782-10.215-8.998c0-4.607,3.347-8.562,10.215-9.345
							v-4.824h4.346v4.737c3.26,0.261,6.433,1.13,8.824,2.651l-2.173,5.346c-2.217-1.26-4.477-1.999-6.651-2.26v7.39
							c4.826,1.13,10.128,2.738,10.128,8.867C96.103,404.173,92.8,408.085,85.975,408.911z M81.628,389.699v-6.173
							c-2.304,0.522-3.217,1.783-3.217,3.217C78.411,388.264,79.715,389.09,81.628,389.699z M89.105,400.174
							c0-1.521-1.26-2.347-3.13-2.999v5.999C88.148,402.695,89.105,401.565,89.105,400.174z"/>
					</g>
				</g>
				<g>
					<g>
						<g>
							<path style="fill:#DEC5AB;" d="M309.952,148.243c0-3.115,2.534-5.65,5.649-5.65s5.65,2.534,5.65,5.65
								c0,3.115-2.534,5.65-5.65,5.65S309.952,151.358,309.952,148.243z M313.547,148.243c0,1.133,0.922,2.054,2.054,2.054
								c1.133,0,2.054-0.921,2.054-2.054c0-1.133-0.922-2.054-2.054-2.054C314.469,146.189,313.547,147.11,313.547,148.243z"/>
						</g>
						<g>
							<path style="fill:#DEC5AB;" d="M288.894,148.243c0-3.115,2.534-5.65,5.649-5.65c3.115,0,5.65,2.534,5.65,5.65
								c0,3.115-2.534,5.65-5.65,5.65C291.429,153.893,288.894,151.358,288.894,148.243z M292.49,148.243
								c0,1.133,0.921,2.054,2.054,2.054c1.133,0,2.054-0.921,2.054-2.054c0-1.133-0.922-2.054-2.054-2.054
								C293.411,146.189,292.49,147.11,292.49,148.243z"/>
						</g>
						<path style="fill:#DEC5AB;" d="M320.962,133.329l-1.401,4.793h-31.18c-0.993,0-1.798,0.805-1.798,1.798
							c0,0.993,0.805,1.798,1.798,1.798h32.528c0.798,0,1.501-0.527,1.725-1.294l10.579-36.199h8.068
							c0.993,0,1.798-0.805,1.798-1.798s-0.805-1.798-1.798-1.798h-9.416c-0.798,0-1.501,0.527-1.725,1.293l-2.083,7.127h-45.155
							c-0.58,0-1.124,0.279-1.461,0.75c-0.337,0.471-0.427,1.076-0.241,1.625l7.019,20.684c0.247,0.729,0.932,1.22,1.702,1.22
							H320.962z M300.047,129.734l-0.866-6.747h5.418v6.747H300.047z M298.72,119.392l-0.866-6.746h6.745v6.746H298.72z
							 M308.195,112.646h7.247l-0.866,6.746h-6.381V112.646z M314.115,122.987l-0.866,6.747h-5.054v-6.747H314.115z M288.92,122.987
							h6.637l0.866,6.747h-5.213L288.92,122.987z M285.411,112.646h8.819l0.866,6.746H287.7L285.411,112.646z M327.007,112.646
							l-1.972,6.746h-6.834l0.866-6.746H327.007z M322.012,129.734h-5.139l0.866-6.747h6.245L322.012,129.734z"/>
					</g>
				</g>
				<g>
					<path style="fill:#DEC5AB;" d="M510.232,153.463c0,9.56-17.31,29.869-17.31,29.869s-17.31-20.309-17.31-29.869
						c0-9.56,7.75-17.311,17.31-17.311C502.482,136.153,510.232,143.903,510.232,153.463z"/>
					<path style="fill:#F8E4CF;" d="M501.746,153.463c0,4.874-3.951,8.825-8.825,8.825c-4.874,0-8.825-3.951-8.825-8.825
						s3.951-8.825,8.825-8.825C497.795,144.638,501.746,148.589,501.746,153.463z"/>
				</g>
			</g>
		</g>
		<g>
			<path style="fill:#D57644;" d="M465.07,374.377c13.357-3.305,83.571-66.438,90.415-88.238c6.843-21.8-26.418-30.887-41.681-17.31
				c-12.009,10.683-47.75,51.134-51.937,51.134c-4.187,0-79.993-38.726-79.993-38.726s3.373-6.735-2.227-13.138
				c-5.6-6.403-9.262-10.562-12.8-16.676c-3.538-6.114-5.617-11.076-6.313-12.494c-0.695-1.419-5.606,1.453-4.809,6.96
				c0.797,5.507,7.641,12.734,6.211,14.842c-1.43,2.108-13.314-6.736-19.163-9.228c-5.849-2.492-16.36-6.38-18.219-4.927
				c-1.859,1.452,18.177,12.685,22.024,16.254c3.847,3.569-19.47-9.495-24.567-10.84c-5.097-1.345-8.799-0.559-6.374,2.068
				c2.424,2.628,24.622,12.912,25.639,14.822c1.017,1.91-22.593-8.386-25.922-6.673s20.604,12.5,22.164,14.523
				c1.56,2.023-16.343-1.706-17.01,0.136c-0.667,1.842,27.128,13.925,33.405,16.332s11.48-0.452,13.925,2.081
				C400.304,328.914,445.086,379.322,465.07,374.377z"/>
			<g>
				<g>
					<g>
						<g>
							<path style="fill:#881800;" d="M111.038,147.183c0,0-0.5-14.972,5.667-18.819c6.167-3.847,31.5-8.014,47.667-16.847
								c16.167-8.833,33.667-17.333,41-13.333c7.333,4,7.667,15.167,3.333,21.333c0,0,15.276-0.333,22.5,11.833
								c7.127,12.004,4,23.5,2.167,27.5c0,0,11.333-0.167,17.5,10c6.167,10.167,5.167,23.333,12,29.5
								c6.833,6.167,14.833,8.333,11.833,18.833s-19.333,21.667-43.333,11.167c0,0,0,16.167-19,13.333c0,0-2.902,15-18.701,16.833
								c-15.799,1.833-24.591-5.012-24.591-5.012s-8.375,16.845-27.541,3.178c0,0-10.5,7.527-20.833,5.347
								c-10.333-2.18-13.833-15.347-13.833-15.347s-25-2.371-28-14.102c-3-11.731,10.5-17.231,15-26.731s5-19.009,3.333-28.088
								c-1.667-9.079-4.5-21.245-3.333-23.079C95.038,152.85,111.038,147.183,111.038,147.183z"/>
							<g>
								
									<path style="fill:none;stroke:#BD3E00;stroke-width:0.5;stroke-linecap:round;stroke-linejoin:round;stroke-miterlimit:10;" d="
									M162.955,121.183c0,0,24.823-9.624,38.014,11.25c0,0,24.236,2.25,26.236,27.25c0,0,15.5,5.075,18.5,24.037
									s27.778,23.624,27.778,23.624"/>
								
									<path style="fill:none;stroke:#BD3E00;stroke-width:0.5;stroke-linecap:round;stroke-linejoin:round;stroke-miterlimit:10;" d="
									M274.159,218.728c0,0-19.385-9.333-26.618-29.001"/>
								
									<path style="fill:none;stroke:#BD3E00;stroke-width:0.5;stroke-linecap:round;stroke-linejoin:round;stroke-miterlimit:10;" d="
									M228.196,237.176c0,0-15.845-8.671-21.918-29.832c0,0,2.455,21.635,11.941,34.612"/>
								
									<path style="fill:none;stroke:#BD3E00;stroke-width:0.5;stroke-linecap:round;stroke-linejoin:round;stroke-miterlimit:10;" d="
									M141.538,256.683c0,0,14.417-17.37,15.417-44.685"/>
							</g>
							
								<path style="fill:none;stroke:#881800;stroke-width:0.5;stroke-linecap:round;stroke-linejoin:round;stroke-miterlimit:10;" d="
								M230.955,155.183c0,0,16.5-2.592,23.5,12.079c7,14.671,7.547,27.505,20.899,33.088"/>
						</g>
						<g>
							<path style="fill:#D06F32;" d="M155.749,232.581c0,0,2.051,15.948,0,36.436c0,0,7.789,11.667,26.455,7.833
								c18.667-3.833,19.948-12.5,19.948-12.5s-3.983-15.719-2.216-30.193L155.749,232.581z"/>
							<path style="fill:#A64912;" d="M184.705,253.35c6.826-0.848,11.651-3.783,14.906-6.773c-0.213-3.973-0.183-8.247,0.327-12.42
								l-44.188-1.576c0,0,0.487,3.8,0.749,10.062C162.566,247.287,174.094,254.667,184.705,253.35z"/>
						</g>
						<g>
							<path style="fill:#D06F32;" d="M153.372,132.596c27.648-11.549,56.333,1,65.333,32s6.333,62-25,72
								s-54.667-11.667-64.333-39.333C119.705,169.596,127.038,143.596,153.372,132.596z"/>
							<g>
								<path style="fill:none;stroke:#A64912;stroke-width:0.5;stroke-miterlimit:10;" d="M186.372,159.683
									c0,0,1.167,19.333,1.833,22.333s9.333,2.833,12,4.167c2.667,1.333-2.5,14.167-2.5,14.167"/>
								<path style="fill:none;stroke:#A64912;stroke-width:0.5;stroke-miterlimit:10;" d="M170.372,205.85
									c0,0,14.167,11.833,28.667,2.667"/>
								<path style="fill:#881800;" d="M154.023,167.934c-1.203-3.853,0.735-7.989,2.985-11.002c1.427-1.547,3.033-2.998,5.034-3.76
									c1.012-0.384,1.999-0.654,3.08-0.748c0.666-0.058,2.086-0.179,2.674,0.241c0.451,0.323,0.017,0.441-0.357,0.639
									c-0.861,0.455-1.703,0.947-2.493,1.519c-1.844,1.336-3.394,2.951-4.87,4.674c-1.424,1.782-2.764,3.578-3.948,5.531
									c-0.455,0.75-0.918,1.507-1.325,2.284C154.722,167.464,154.201,168.686,154.023,167.934z"/>
								<path style="fill:#881800;" d="M187.865,148.817c2.773-2.726,8.026-2.633,11.296-1.008c3.345,1.663,5.991,4.478,6.368,8.326
									c0.018,0.142,0.182,1.441-0.209,1.391c-0.471-0.061-1.181-1.353-1.504-1.67c-1.691-1.662-3.488-3.101-5.65-4.115
									c-2.026-0.95-4.124-1.676-6.329-2.08c-1.021-0.187-2.07-0.346-3.107-0.405C188.541,149.241,187.292,149.306,187.865,148.817
									z"/>
								<g>
									<path style="fill:#041801;" d="M171.978,181.327c0.628,2.357-0.161,4.614-1.762,5.04s-3.408-1.138-4.036-3.495
										c-0.628-2.357,0.161-4.614,1.762-5.04C169.543,177.406,171.35,178.97,171.978,181.327z"/>
									<path style="fill:#041801;" d="M172.28,173.685c1.868,3.065-0.522,8.073-4.097,8.469c-0.336,0.037,0.809-1.019,0.927-1.15
										c0.754-0.78,1.352-1.74,1.792-2.727c0.441-0.899,0.754-1.865,0.961-2.843C171.937,175.082,171.954,173.736,172.28,173.685z
										"/>
								</g>
								<g>
									<path style="fill:#041801;" d="M205.052,174.906c0.628,2.357-0.161,4.614-1.762,5.04c-1.601,0.427-3.408-1.138-4.036-3.495
										c-0.628-2.357,0.161-4.614,1.762-5.04C202.617,170.984,204.424,172.549,205.052,174.906z"/>
									<path style="fill:#041801;" d="M205.353,167.264c1.868,3.065-0.522,8.072-4.097,8.469c-0.336,0.037,0.809-1.019,0.927-1.15
										c0.754-0.78,1.352-1.74,1.792-2.727c0.441-0.899,0.754-1.865,0.961-2.844C205.011,168.66,205.028,167.315,205.353,167.264z
										"/>
								</g>
								
									<ellipse transform="matrix(0.9726 -0.2324 0.2324 0.9726 -42.8653 41.7471)" style="fill:#B75832;" cx="155.749" cy="202.802" rx="18.756" ry="15.745"/>
								<path style="fill:#B75832;" d="M220.221,170.285c-10.017,2.443-16.497,11.215-14.483,19.644
									c1.685,7.054,8.791,11.619,16.947,11.549C223.92,191.844,222.858,181.145,220.221,170.285z"/>
							</g>
						</g>
						<g>
							<path style="fill:#BD3E00;" d="M116.955,232.581c0,0,8.339,1.852,12.732-3.148c6.531-7.432,0-31.29,0-31.29
								c17.732-17.04,10.161-42.46,10.161-42.46s12.856-2.75,20.106-11.5s6.01-20,6.01-20c8.5-5.678,7.883-12.911,6.585-17.017
								c-2.728,1.403-5.471,2.871-8.178,4.35c-16.167,8.833-41.5,13-47.667,16.848c-6.167,3.847-5.667,18.819-5.667,18.819
								s-16,5.667-17.167,7.5c-1.167,1.833,1.667,14,3.333,23.079c1.667,9.079,1.167,18.588-3.333,28.088s-18,15-15,26.731
								c3,11.731,28,14.102,28,14.102C116.038,240.933,116.955,232.581,116.955,232.581z"/>
							<g>
								
									<path style="fill:none;stroke:#881800;stroke-width:0.5;stroke-linecap:round;stroke-linejoin:round;stroke-miterlimit:10;" d="
									M111.038,147.183c0,0,2.572,35.875-15.381,54.313"/>
								
									<path style="fill:none;stroke:#881800;stroke-width:0.5;stroke-linecap:round;stroke-linejoin:round;stroke-miterlimit:10;" d="
									M83.601,239.077c0,0,21.353-26.917,23.854-59.281"/>
							</g>
							
								<path style="fill:none;stroke:#BD3E00;stroke-width:0.5;stroke-linecap:round;stroke-linejoin:round;stroke-miterlimit:10;" d="
								M147.455,147.183c0,0,6.965,34.669-17.768,50.96"/>
							
								<path style="fill:none;stroke:#BD3E00;stroke-width:0.5;stroke-linecap:round;stroke-linejoin:round;stroke-miterlimit:10;" d="
								M98.205,171.341c0,0,2.222,28.932-19.764,47.387"/>
						</g>
						<g>
							<path style="fill:#D06F32;" d="M139.849,217.533l-10.161-19.39c0,0-10.482-14.293-19.482-5.626
								C101.205,201.183,122.826,228.05,139.849,217.533z"/>
							<path style="fill:#A64912;" d="M115.371,200.35c-1.608,2.822-1.089,7.492,0.106,12.07
								c6.408,6.366,15.949,10.316,24.371,5.114l-10.161-19.39C129.687,198.143,119.375,193.326,115.371,200.35z"/>
						</g>
					</g>
					<g>
						<g>
							<path style="fill:#D06F32;" d="M336.902,229.204c0,0-5.362-3.524-4.186-11.949c1.176-8.425,1.959-13.911,1.567-20.964
								c-0.392-7.053-1.372-12.343-1.567-13.911c-0.196-1.567,5.486-1.857,7.837,3.186c2.351,5.043,0.588,14.839,2.939,15.819
								c2.351,0.98,7.445-12.931,10.972-18.221c3.527-5.29,10.188-14.302,12.539-14.107c2.351,0.196-8.252,20.572-9.514,25.666
								c-1.262,5.094,11.082-18.613,14.608-22.531c3.527-3.919,7.053-5.29,6.465-1.763c-0.588,3.527-13.519,24.294-13.323,26.45
								c0.196,2.155,14.302-19.396,18.025-19.788c3.723-0.392-10.384,21.748-10.58,24.295c-0.196,2.547,12.735-10.384,14.302-9.208
								c1.567,1.176-15.059,26.515-18.991,31.968c-3.932,5.453-10.507,9.372-10.507,9.372l-4.788,21.747l-22.531-5.094
								L336.902,229.204z"/>
							<path style="fill:none;stroke:#A64912;stroke-width:0.5;stroke-miterlimit:10;" d="M345.059,205.108
								c0,0,8.033,12.343,7.249,25.47"/>
							<path style="fill:none;stroke:#A64912;stroke-width:0.5;stroke-miterlimit:10;" d="M351.133,204.325
								c0,0,10.186,0.907,15.478,7.507"/>
						</g>
						<g>
							<path style="fill:#184347;" d="M155.749,269.017c0,0-35.795,38.417-42.295,47.167c-6.5,8.75,6.25,41,15.75,59
								c9.5,18,22.25,52.25,22.75,60s1.25,19.75,1.25,19.75h110.75c0,0,8-54.25,8.25-78.5c0,0,37,14,50,12.5s19-18.5,23-37.5
								s13.5-105.77,12.5-105.664c-1,0.106-25.187-7.833-27.5-4.736c-1.75,2.343-24.75,69.65-26,70.15s-3.75-0.25-5,0.25s0,7-1,7
								s-45.426-49.001-52.926-52.751s-43.126-1.333-43.126-1.333L155.749,269.017z"/>
							<g>
								<g>
									<path style="fill:none;stroke:#3B7977;stroke-width:0.5;stroke-miterlimit:10;" d="M301.455,322.933
										c0,0,15.75,18,17.25,44.25"/>
									<path style="fill:none;stroke:#3B7977;stroke-width:0.5;stroke-miterlimit:10;" d="M304.705,316.433
										c0,0,11.325,17.233,12.287,38.741"/>
								</g>
								<path style="fill:#3B7977;" d="M274.159,325.433c-3.149-8.801-12.135-19.774-19.316-27.618
									c-15.302,8.231-74.054,37.834-139.426,44.671c3.565,11.334,9.075,23.769,13.788,32.698
									c2.721,5.155,5.708,11.645,8.597,18.461c27.205-0.283,92.556-5.027,136.564-41.544
									C276.024,344.085,277.095,333.638,274.159,325.433z"/>
								<path style="fill:none;stroke:#3B7977;stroke-width:0.5;stroke-miterlimit:10;stroke-dasharray:3,4;" d="M158.117,271.598
									c0,0-24.412,34.864-28.079,41.141c-3.667,6.277,28.667,104.944,30.667,111.277c2,6.333-1.333,8.725-1.333,12.029
									c0,3.304,4.333,5.304,4.333,6.971c0,1.667,0,11.917,0,11.917"/>
								<path style="fill:none;stroke:#3B7977;stroke-width:0.5;stroke-miterlimit:10;stroke-dasharray:3,4;" d="M272.932,358.078
									c0,0,41.348,16.605,44.06,16.605c2.713,0-1.299-12.169,1.374-11.418c2.672,0.751,3.114,6.751,5.893,5.751
									c2.779-1,26.874-124.982,26.874-124.982"/>
								<path style="fill:none;stroke:#3B7977;stroke-width:0.5;stroke-miterlimit:10;" d="M244.955,287.683
									c0,0,23.659,22.25,29.204,37.75c5.546,15.5-3.204,39-3.204,39l1.25,12"/>
							</g>
						</g>
						<g>
							<g>
								<path style="fill:#3B7977;" d="M156.605,255.102c0,0,26.309,10.905,43.626-1.597l-0.293-2.649c0,0,3.385-0.768,4.341,0
									c0.956,0.768,0.927,10.327,2.093,14.66c1.167,4.333,1.333,10.713,0,12.106c-1.333,1.394-14.833,7.56-26.333,7.394
									c-11.5-0.167-26.5-5.833-28-9c-1.5-3.167,1.5-13.833,1.167-16.5c-0.333-2.667-0.372-7.002,0.795-7.333
									c1.167-0.332,2.656-0.248,2.656-0.248L156.605,255.102z"/>
								<g>
									<defs>
										<path id="SVGID_1_" d="M156.605,255.102c0,0,26.309,10.905,43.626-1.597l-0.293-2.649c0,0,3.385-0.768,4.341,0
											c0.956,0.768,0.927,10.327,2.093,14.66c1.167,4.333,1.333,10.713,0,12.106c-1.333,1.394-14.833,7.56-26.333,7.394
											c-11.5-0.167-26.5-5.833-28-9c-1.5-3.167,1.5-13.833,1.167-16.5c-0.333-2.667-0.372-7.002,0.795-7.333
											c1.167-0.332,2.656-0.248,2.656-0.248L156.605,255.102z"/>
									</defs>
									<clipPath id="SVGID_00000083781476970065259130000004366185595329443482_">
										<use xlink:href="#SVGID_1_"  style="overflow:visible;"/>
									</clipPath>
									<g style="clip-path:url(#SVGID_00000083781476970065259130000004366185595329443482_);">
										<g>
											<g>
												<path style="fill:#184347;" d="M159.447,252.951c-3.447,1.041-1.279,7.212-0.724,9.466
													c0.748,3.038,1.05,5.26,0.588,8.415c-0.613,4.185-1.705,8.285-2.338,12.468c-0.096,0.631,0.868,0.902,0.964,0.266
													c0.543-3.587,1.372-7.12,2.037-10.685c0.417-2.238,0.943-4.64,0.591-6.913c-0.324-2.094-3.844-11.149-0.852-12.052
													C160.328,253.729,160.066,252.764,159.447,252.951L159.447,252.951z"/>
											</g>
										</g>
										<g>
											<g>
												<path style="fill:#184347;" d="M170.351,255.705c-2.773,3.415-1.155,8.096-0.154,11.897
													c1.687,6.405,0.133,12.73,0.133,19.207c0,0.645,1,0.645,1,0c0-5.379,1.334-10.826,0.503-16.194
													c-0.656-4.239-3.879-10.378-0.774-14.202C171.461,255.916,170.758,255.204,170.351,255.705L170.351,255.705z"/>
											</g>
										</g>
										<g>
											<g>
												<path style="fill:#184347;" d="M182.723,256.191c1.354,4.802,1.463,9.808,1.572,14.764
													c0.119,5.451,0.393,10.899,0.41,16.353c0.002,0.645,1.002,0.645,1,0c-0.017-5.453-0.293-10.901-0.41-16.353
													c-0.108-5.043-0.23-10.144-1.607-15.03C183.512,255.305,182.547,255.569,182.723,256.191L182.723,256.191z"/>
											</g>
										</g>
										<g>
											<g>
												<path style="fill:#184347;" d="M195.726,252.037c2.26,2.168,2.192,5.01,1.747,7.889
													c-0.375,2.421-0.407,4.84-0.338,7.285c0.075,2.648,0.051,5.289,0.093,7.937c0.048,3.092,0.885,6.234-0.13,9.278
													c-0.205,0.614,0.761,0.874,0.964,0.266c0.929-2.789,0.41-5.814,0.202-8.662c-0.235-3.215-0.063-6.5-0.155-9.726
													c-0.138-4.876,2.37-11.093-1.676-14.973C195.968,250.883,195.26,251.589,195.726,252.037L195.726,252.037z"/>
											</g>
										</g>
									</g>
								</g>
							</g>
							
								<path style="fill:none;stroke:#184347;stroke-width:0.75;stroke-linecap:round;stroke-linejoin:round;stroke-miterlimit:10;" d="
								M154.58,253.505c0,0,5.75,5.428,25.377,5.998c15.755,0.457,22.196-7.444,22.196-7.444"/>
						</g>
						<g>
							<path style="fill:#3B7977;" d="M329.955,222.683c-3.801,0.224-2.5,6.315-4.5,11.658c-2,5.342-3.485,13.44,1.382,15.141
								c4.868,1.701,19.469,1.877,24.868,4.023c5.399,2.146,10.75,1.928,11.5-2.572s3-14.704,3.5-18.352
								C367.205,228.933,351.205,221.433,329.955,222.683z"/>
							<g>
								<defs>
									<path id="SVGID_00000071537021885481113540000011273150729863056527_" d="M329.955,222.683
										c-3.801,0.224-2.5,6.315-4.5,11.658c-2,5.342-3.485,13.44,1.382,15.141c4.868,1.701,19.469,1.877,24.868,4.023
										c5.399,2.146,10.75,1.928,11.5-2.572s3-14.704,3.5-18.352C367.205,228.933,351.205,221.433,329.955,222.683z"/>
								</defs>
								<clipPath id="SVGID_00000116920600797091101630000004928755370274267541_">
									<use xlink:href="#SVGID_00000071537021885481113540000011273150729863056527_"  style="overflow:visible;"/>
								</clipPath>
								<g style="clip-path:url(#SVGID_00000116920600797091101630000004928755370274267541_);">
									<g>
										<g>
											<path style="fill:#184347;" d="M336.452,220.251c-6.4,3.754-4.816,10.205-6.316,16.384
												c-1.037,4.271-5.647,11.402-2.53,15.633c0.378,0.513,1.247,0.015,0.864-0.505c-1.475-2.001-0.584-4.846,0.035-7.014
												c0.712-2.495,1.726-4.893,2.467-7.38c1.764-5.917-0.347-12.541,5.985-16.255
												C337.513,220.789,337.01,219.924,336.452,220.251L336.452,220.251z"/>
										</g>
									</g>
									<g>
										<g>
											<path style="fill:#184347;" d="M337.52,253.217c-1.627-6.575,2.9-12.269,3.511-18.677
												c0.254-2.664,0.458-5.325,0.924-7.964c0.391-2.218,0.964-5.49,3.169-6.628c0.573-0.296,0.067-1.159-0.505-0.863
												c-4.108,2.12-4.066,9.651-4.42,13.563c-0.312,3.452-1.053,6.536-2.287,9.79c-1.394,3.675-2.323,7.139-1.356,11.045
												C336.711,254.109,337.675,253.843,337.52,253.217L337.52,253.217z"/>
										</g>
									</g>
									<g>
										<g>
											<path style="fill:#184347;" d="M351.94,221.597c-2.445,4.407-2.764,9.635-3.438,14.533
												c-0.838,6.089-1.934,12.221-3.113,18.253c-0.123,0.63,0.841,0.898,0.964,0.266c1.135-5.808,2.107-11.688,3.009-17.536
												c0.775-5.026,0.918-10.465,3.44-15.011C353.116,221.538,352.253,221.034,351.94,221.597L351.94,221.597z"/>
										</g>
									</g>
									<g>
										<g>
											<path style="fill:#184347;" d="M359.538,225.35c0.09,0.88,0.335,1.701,0.58,2.55c0.657,2.274,0.325,4.127-0.587,6.25
												c-1.105,2.573-2.729,4.829-3.492,7.553c-1.492,5.325-0.271,11.869-4.188,16.293c-0.426,0.481,0.279,1.191,0.707,0.707
												c3.701-4.18,3.238-10.336,4.169-15.501c0.611-3.391,2.638-6.154,3.974-9.264c0.544-1.266,0.831-2.59,0.841-3.963
												c0.011-1.585-0.846-3.064-1.005-4.626C360.473,224.715,359.473,224.708,359.538,225.35L359.538,225.35z"/>
										</g>
									</g>
								</g>
							</g>
						</g>
					</g>
				</g>
				<g>
					<g>
						<g>
							<path style="fill:#BD3E00;" d="M632.205,262.683c0,0,28.75,29.75,35.25,39.25s4.25,32.5-2.25,48.5s-26,49.5-27.25,54
								s-13.25,50.5-13.25,50.5h-130c0,0-3-71.5,8.5-122.875c0,0-20.5-22.875-22-29.375s40.5-44.162,48.5-47.581
								s51.594-3.044,51.594-3.044L632.205,262.683z"/>
							<path style="fill:#F96722;" d="M583.66,259.522c0,0-21,30.083-32.955,66.601l17.462,8.477c0,0,13.769-36.813,32.485-65.097
								L583.66,259.522z"/>
							<g>
								<path style="fill:#BD3E00;" d="M582.566,285.129c0,1.626-1.318,2.944-2.944,2.944c-1.626,0-2.944-1.318-2.944-2.944
									c0-1.626,1.318-2.944,2.944-2.944C581.248,282.185,582.566,283.503,582.566,285.129z"/>
								<circle style="fill:#BD3E00;" cx="572.54" cy="299.601" r="2.944"/>
								<path style="fill:#BD3E00;" d="M568.149,314.988c0,1.626-1.318,2.944-2.944,2.944c-1.626,0-2.944-1.318-2.944-2.944
									s1.318-2.944,2.944-2.944C566.831,312.044,568.149,313.362,568.149,314.988z"/>
							</g>
							
								<path style="fill:none;stroke:#881800;stroke-width:0.5;stroke-linecap:round;stroke-linejoin:round;stroke-miterlimit:10;stroke-dasharray:3,4;" d="
								M629.368,266.428c0,0,29.441,30.823,30.222,43.372c0.781,12.549-33.552,88.883-35.219,93.549
								c-1.667,4.667-9.107,51.583-9.107,51.583"/>
						</g>
						<g>
							<path style="fill:#881800;" d="M522.705,277.623c0,0,5.713-11.997,6.629-22.349c-8.841,4.336-49.607,41.004-48.129,47.409
								c1.5,6.5,22,29.375,22,29.375S509.205,298.563,522.705,277.623z"/>
							
								<path style="fill:none;stroke:#BD3E00;stroke-width:0.5;stroke-linecap:round;stroke-linejoin:round;stroke-miterlimit:10;stroke-dasharray:3,4;" d="
								M483.855,296.956c0,0,10.606,14.651,21.395,25.689"/>
						</g>
					</g>
					<g>
						<g>
							<path style="fill:#FFA36E;" d="M628.573,225.017c0,0-1.569,16.003,1.099,36.419c0,0-7.433,11.896-26.207,8.628
								s-20.316-11.892-20.316-11.892s3.507-15.832,1.304-30.246L628.573,225.017z"/>
							<path style="fill:#D57644;" d="M600.257,246.65c-6.849-0.641-11.76-3.43-15.104-6.32c0.093-3.978-0.066-8.249-0.701-12.404
								l44.12-2.908c0,0-0.372,3.813-0.445,10.08C622.203,239.922,610.903,247.647,600.257,246.65z"/>
						</g>
						<g>
							<g>
								<path style="fill:#0C2109;" d="M631.789,222.716c0,0,5.531,6.967,12.224,1.217s7.193-18.528,7.193-18.528
									s16.25-36.472,16.25-46.222s-10.16-15.5-10.16-15.5s-0.975-10.5-13.283-20.25s-29.287-16.75-50.068-7.75
									c-17.306,7.495-31.239,12.5-40.239,10c0,0-1,10.303,8,16.777c0,0-10-1.027-17-9.027c0,0-12.25,28.869,19.25,43.934
									L631.789,222.716z"/>
								
									<path style="fill:none;stroke:#354232;stroke-width:0.5;stroke-linecap:round;stroke-linejoin:round;stroke-miterlimit:10;" d="
									M542.712,141.399c0,0,7.743,13.034,32.243,15.534c0,0-19.645,4.257-31.947-3.871"/>
							</g>
							<path style="fill:#FFA36E;" d="M627.933,125.006c-27.984-10.71-56.278,2.699-64.338,33.956
								c-8.061,31.258-4.46,62.163,27.161,71.213c31.621,9.05,54.29-13.311,63.117-41.256
								C662.701,160.974,654.586,135.207,627.933,125.006z"/>
							<g>
								<path style="fill:#354232;" d="M657.295,143.683c0,0-0.975-10.5-13.283-20.25s-29.287-16.75-50.068-7.75
									c-9.758,4.226-18.443,7.659-25.777,9.403v0.001c0,0,22.038,21.899,67.538,17.373c0,0-11.308,8.742-21.654,8.858
									c0,0,13.519,9.866,29.962,4.366c0,0-9.799,20,9.572,34.125c1.15,0.838,2.276,1.509,3.379,2.038
									c4.674-11.431,10.491-26.829,10.491-32.664C667.455,149.433,657.295,143.683,657.295,143.683z"/>
								<g>
									
										<path style="fill:none;stroke:#0C2109;stroke-width:0.5;stroke-linecap:round;stroke-linejoin:round;stroke-miterlimit:10;" d="
										M641.745,170.899c0,0,15.619-7.636,22.289-21.176"/>
									
										<path style="fill:none;stroke:#0C2109;stroke-width:0.5;stroke-linecap:round;stroke-linejoin:round;stroke-miterlimit:10;" d="
										M645.252,180.997c0,0,6.568-8.693,9.76-19.503"/>
								</g>
							</g>
							<g>
								<path style="fill:none;stroke:#D57644;stroke-width:0.5;stroke-miterlimit:10;" d="M598.864,152.85
									c0,0-3.599,18.809-4.92,21.583c-1.739,3.653-9.492,3.677-12.471,8.25c-1.627,2.498,8.619,10.568,8.619,10.568"/>
								<path style="fill:none;stroke:#D57644;stroke-width:0.5;stroke-miterlimit:10;" d="M613.151,198.739
									c0,0-13.803,12.255-28.573,3.53"/>
								<path style="fill:#0C2109;" d="M623.209,162.863c-2.614-2.985-5.488-5.664-8.711-7.985c-1.786-1.286-3.7-2.223-5.736-3.028
									c-0.448-0.177-1.784-0.29-2.094-0.637c-0.655-0.183,1.097-1.087,1.157-1.111c4.173-1.786,8.81-0.32,12.039,2.663
									c1.63,1.506,2.827,3.498,3.433,5.628c0.256,0.965,0.387,1.927,0.401,2.924C623.703,161.388,623.636,163.351,623.209,162.863
									z"/>
								<path style="fill:#0C2109;" d="M591.944,147.71c-4.148,0.189-8.601,1.638-12.039,3.962c-1.786,1.208-3.283,2.683-4.641,4.35
									c-0.301,0.37-0.634,0.767-0.791,0.075c-0.222-0.984-0.236-2.099-0.031-3.085c0.773-3.715,3.669-6.632,7.222-7.817
									c2.167-0.723,4.525-0.812,6.714-0.12c0.939,0.293,1.844,0.734,2.633,1.324C591.067,146.434,592.588,147.691,591.944,147.71z
									"/>
								<path style="fill:#041801;" d="M611.805,172.277c-0.557,2.375,0.3,4.607,1.913,4.985c1.613,0.378,3.372-1.241,3.929-3.616
									c0.557-2.375-0.3-4.607-1.913-4.985S612.362,169.902,611.805,172.277z"/>
								<path style="fill:#041801;" d="M578.553,166.856c-0.557,2.375,0.3,4.607,1.913,4.985c1.613,0.378,3.372-1.241,3.929-3.616
									c0.557-2.375-0.3-4.607-1.913-4.985C580.868,162.863,579.109,164.481,578.553,166.856z"/>
								
									<ellipse transform="matrix(0.2029 -0.9792 0.9792 0.2029 311.8624 769.626)" style="fill:#F28475;" cx="628.674" cy="193.251" rx="15.745" ry="18.756"/>
								<path style="fill:#F28475;" d="M563.149,162.669c-0.145-0.03-0.288-0.044-0.432-0.071
									c-2.492,10.904-3.476,21.657-2.266,31.353c8.698,0.327,16.321-4.588,17.869-12.059
									C580.084,173.377,573.292,164.771,563.149,162.669z"/>
							</g>
							<g>
								<path style="fill:#FFA36E;" d="M644.012,209.496l9.572-19.688c0,0,10.047-14.603,19.304-6.212
									C682.145,191.988,661.345,219.495,644.012,209.496z"/>
								<path style="fill:#D57644;" d="M667.96,191.583c1.693,2.772,1.314,7.455,0.258,12.067
									c-6.213,6.556-15.631,10.793-24.205,5.847l9.572-19.688C653.584,189.808,663.747,184.683,667.96,191.583z"/>
							</g>
						</g>
						<g>
							<g>
								<path style="fill:#F96722;" d="M641.745,110.183c0,0,6.829-4.25,11.145-1.25c4.315,3,2.123,11.25,2.123,11.25
									L641.745,110.183z"/>
								<path style="fill:#BD3E00;" d="M581.958,120.629c0,0,35.896-12.394,80.821,56.164c0,0,12.258-25.223,10.258-34.333
									c-2-9.11-27.187-42.999-58.987-43.11C602.651,99.31,581.958,120.629,581.958,120.629z"/>
								
									<path style="fill:none;stroke:#881800;stroke-width:0.5;stroke-linecap:round;stroke-linejoin:round;stroke-miterlimit:10;stroke-dasharray:3,4;" d="
									M586.89,115.884c0,0,43.507-7.145,77.661,57.077"/>
							</g>
							<path style="fill:#881800;" d="M641.745,149.427c0,0-11.04-36.403-36.837-54.994c-19.492-14.047-55.411,0.921-42.682,31.711
								c0,0,9.247-1.216,19.733-5.515C581.958,120.629,605.535,111.92,641.745,149.427z"/>
						</g>
					</g>
					<path style="fill:#881800;" d="M590.081,261.433l-5.183-16.004c0,0-3.006,0.701-3.6,1.309c-0.594,0.608-6.74,8.527-6.74,8.527
						s-4.353,14.668-2.603,23.168l16.25-12l8.75,22c0,0,21.25-5.75,35.25-25.75c0,0-1-15.39-1.5-15.945s-2.349,0-2.349,0
						S619.458,258.683,590.081,261.433z"/>
				</g>
				<g>
					<rect x="299.052" y="183.559" style="fill:#EA9633;" width="171.306" height="144.462"/>
					<g>
						<polyline style="fill:none;stroke:#CA791E;stroke-width:0.5;stroke-miterlimit:10;" points="470.358,183.559 384.705,229.685 
							299.052,183.559 						"/>
						<polyline style="fill:none;stroke:#CA791E;stroke-width:0.5;stroke-miterlimit:10;" points="299.052,328.021 384.705,281.895 
							470.358,328.021 						"/>
						
							<line style="fill:none;stroke:#CA791E;stroke-width:0.5;stroke-miterlimit:10;" x1="384.705" y1="229.685" x2="384.705" y2="281.895"/>
					</g>
					<polygon style="fill:#F8E4CF;" points="403.858,183.559 403.858,234.29 398.451,240.29 393.045,234.29 387.642,240.29 
						382.244,234.29 376.844,240.29 371.444,234.29 366.045,240.29 360.645,234.29 360.645,183.559 					"/>
					<rect x="397.608" y="295.04" style="fill:#F8E4CF;" width="62" height="22.688"/>
					<rect x="425.255" y="271.79" style="fill:#374A3A;" width="34.353" height="18.126"/>
				</g>
				<g>
					<g>
						<path style="fill:#FFA36E;" d="M469.371,346.617c0,0-6.461-0.222-8.288-0.526c-1.827-0.305-14.46-15.83-14.46-15.83
							s-2.435,2.435-3.805,2.131c-1.37-0.304-7.458-4.414-9.742-5.784c-2.283-1.37-0.609-5.936-0.609-5.936
							c-2.892-0.609-3.834-5.943-2.921-7.312c0.913-1.37,13.423-5.558,13.423-5.558s-5.936-2.808-7.154-2.808
							s-5.784,2.74-11.263,4.314c-5.48,1.574-10.198-0.661-9.285-1.726c0.913-1.066,14.46-10.35,18.113-10.35
							c3.653,0,16.591,1.37,16.591,1.37s-5.936-4.414-7.458-5.023c-1.522-0.609-3.349-0.304-11.264,0
							c-7.915,0.305-11.568-1.218-10.046-2.587c1.522-1.369,18.874-7.155,22.831-6.85c3.957,0.305,22.832,12.177,24.049,13.09
							c1.218,0.913,17.391,38.727,17.391,38.727s75.806,38.726,79.993,38.726c4.187,0,53.1-47.802,64.501-54.977
							c11.401-7.175,43.833,3.553,36.99,25.352c-6.843,21.8-86.692,76.632-98.287,84.04S469.371,346.617,469.371,346.617z"/>
						<g>
							<g>
								<path style="fill:none;stroke:#D57644;stroke-width:0.5;stroke-miterlimit:10;" d="M449.972,298.601
									c0,0,11.111,0.609,11.111,1.218c0,0.609,2.892,6.849,2.892,6.849"/>
								<path style="fill:none;stroke:#D57644;stroke-width:0.5;stroke-miterlimit:10;" d="M442.971,307.801
									c1.674-0.595,10.503-3.721,11.111-3.112c0.609,0.609,3.805,6.355,3.805,6.355"/>
								<path style="fill:none;stroke:#D57644;stroke-width:0.5;stroke-miterlimit:10;" d="M432.468,320.671
									c0,0,12.481-4.899,14.46-5.494c1.979-0.595,5.023,3.515,5.023,3.515"/>
								<polyline style="fill:none;stroke:#D57644;stroke-width:0.5;stroke-miterlimit:10;" points="446.624,330.26 442.21,324.858 
									437.187,325.999 								"/>
							</g>
						</g>
						<path style="fill:none;stroke:#D57644;stroke-width:0.5;stroke-miterlimit:10;" d="M565.47,374.683
							c0,0,6.581,20.33,2.679,37.333"/>
					</g>
					<g>
						<path style="fill:#881800;" d="M586.609,343.012c0,0,9.559,17,21.113,28.5c11.554,11.5,20.554,20.167,22.887,19.833
							c2.333-0.333,31.484-28.03,37.29-38.513c5.806-10.483,6.139-28.539-2.194-37.844c-8.333-9.305-24.931-9.249-37.132-3.944
							C616.371,316.35,588.276,340.678,586.609,343.012z"/>
						
							<path style="fill:none;stroke:#BD3E00;stroke-width:0.5;stroke-linecap:round;stroke-linejoin:round;stroke-miterlimit:10;stroke-dasharray:3,4;" d="
							M593.51,336.593c0,0,18.49,30.969,43.509,49.696"/>
					</g>
				</g>
				<g>
					<path style="fill:#D06F32;" d="M302.809,322.378c0,0-2.545-5.89,3.065-12.284c5.61-6.394,9.278-10.548,12.826-16.657
						c3.547-6.109,5.634-11.067,6.332-12.485c0.697-1.417,5.604,1.462,4.799,6.967c-0.805,5.505-7.66,12.723-6.234,14.833
						c1.426,2.11,13.324-6.715,19.177-9.199c5.853-2.483,16.37-6.355,18.227-4.9c1.857,1.455-18.196,12.657-22.049,16.221
						c-3.852,3.564,19.484-9.466,24.584-10.803c5.099-1.337,8.8-0.546,6.371,2.078c-2.428,2.624-24.642,12.875-25.662,14.783
						c-1.02,1.908,22.606-8.351,25.932-6.634c3.326,1.717-20.623,12.468-22.186,14.489c-1.563,2.021,16.346-1.681,17.01,0.162
						s-27.149,13.884-33.43,16.281c-6.281,2.397-13.928,2.059-13.928,2.059l-15.947,15.542l-16.029-16.633L302.809,322.378z"/>
					<g>
						<path style="fill:#184347;" d="M166.372,315.108c25.337,15.277,54.251,60.024,55.086,60.574
							c0.836,0.549,3.362-5.569,4.681-5.3c1.319,0.269,2.996,2.269,4.315,2.538c1.319,0.269,57.511-43.34,60.261-44.336
							c3.634-1.317,19.484,18.603,20.378,19.064c0.894,0.461-58.013,72.612-73.57,84.23c-20.899,15.608-53.196-17.13-64.212-24.194
							c-20.272-13-57.911-54.151-59.593-71.112C112.034,319.611,124.457,289.835,166.372,315.108z"/>
						<path style="fill:none;stroke:#3B7977;stroke-width:0.5;stroke-miterlimit:10;" d="M220.372,378.683
							c0,0-7.404,9.923-8.036,14.961s8.036,27.705,8.036,27.705s-3.667-26.5,5.333-44.917"/>
						<path style="fill:none;stroke:#3B7977;stroke-width:0.5;stroke-miterlimit:10;stroke-dasharray:3,4;" d="M114.36,326.122
							c0,0-0.29,11.232,15.388,30.337c15.678,19.105,79.219,68.89,82.587,71.223c3.369,2.333,3.1-2,4.901-1.667
							c1.801,0.333,3.136,4,5.968,4s4.149-5.333,4.991-6c0.842-0.667,6.842,1,9.508-0.667c2.667-1.667,69.65-79.847,69.65-79.847"/>
						<path style="fill:none;stroke:#3B7977;stroke-width:0.5;stroke-miterlimit:10;" d="M311.092,347.647
							c0.894,0.461-58.013,72.612-73.57,84.23c-20.899,15.608-53.196-17.13-64.212-24.194c-20.272-13-57.911-54.151-59.593-71.112"
							/>
					</g>
					<g>
						<path style="fill:#3B7977;" d="M300.586,313.113c-3.299-1.901-5.558,3.904-10.164,7.269
							c-4.606,3.366-10.295,9.316-7.162,13.412c3.133,4.095,15.237,12.263,18.57,17.022c3.333,4.759,7.924,7.516,11.022,4.168
							c3.099-3.348,10.584-10.639,13.006-13.413C328.279,338.797,319.029,323.741,300.586,313.113z"/>
						<g>
							<defs>
								<path id="SVGID_00000080888183317944561840000016541259024378007953_" d="M300.586,313.113
									c-3.299-1.901-5.558,3.904-10.164,7.269c-4.606,3.366-10.295,9.316-7.162,13.412c3.133,4.095,15.237,12.263,18.57,17.022
									c3.333,4.759,7.924,7.516,11.022,4.168c3.099-3.348,10.584-10.639,13.006-13.413
									C328.279,338.797,319.029,323.741,300.586,313.113z"/>
							</defs>
							<clipPath id="SVGID_00000163790477371240707960000000115878270575414450_">
								<use xlink:href="#SVGID_00000080888183317944561840000016541259024378007953_"  style="overflow:visible;"/>
							</clipPath>
							<g style="clip-path:url(#SVGID_00000163790477371240707960000000115878270575414450_);">
								<g>
									<g>
										<path style="fill:#184347;" d="M307.324,314.649c-7.385-0.387-9.64,5.917-14.276,10.244
											c-3.215,3.001-10.959,6.426-10.678,11.678c0.034,0.641,1.034,0.645,1,0c-0.142-2.654,2.553-4.712,4.387-6.24
											c1.957-1.63,4.085-3.046,5.998-4.731c4.543-4.001,6.371-10.328,13.568-9.951
											C307.969,315.683,307.966,314.683,307.324,314.649L307.324,314.649z"/>
									</g>
								</g>
								<g>
									<g>
										<path style="fill:#184347;" d="M290.141,342.762c2.197-6.303,8.931-8.416,12.908-13.31c1.666-2.05,3.265-4.143,5.05-6.093
											c1.624-1.774,4.038-4.468,6.691-4.198c0.641,0.065,0.635-0.935,0-1c-2.226-0.226-4.136,1.385-5.688,2.777
											c-2.45,2.197-4.443,4.894-6.482,7.46c-4.146,5.218-11.125,7.445-13.444,14.099
											C288.964,343.107,289.93,343.367,290.141,342.762L290.141,342.762z"/>
									</g>
								</g>
								<g>
									<g>
										<path style="fill:#184347;" d="M319.523,324.298c-4.457,2.336-7.602,6.546-10.849,10.262
											c-4.044,4.628-8.329,9.15-12.628,13.543c-0.451,0.461,0.255,1.169,0.707,0.707c4.139-4.229,8.181-8.609,12.148-13.001
											c3.414-3.779,6.517-8.231,11.127-10.647C320.599,324.862,320.093,323.999,319.523,324.298L319.523,324.298z"/>
									</g>
								</g>
								<g>
									<g>
										<path style="fill:#184347;" d="M323.827,331.614c-0.465,0.873-0.713,1.827-1.01,2.766
											c-0.639,2.016-1.917,3.274-3.626,4.437c-2.373,1.615-5.056,2.612-7.248,4.511c-4.185,3.627-6.768,9.787-12.489,11.328
											c-0.622,0.168-0.358,1.132,0.266,0.964c5.626-1.515,8.608-7.324,12.49-11.174c2.475-2.455,5.913-3.53,8.664-5.611
											c2.446-1.851,2.481-4.205,3.818-6.717C324.993,331.55,324.13,331.044,323.827,331.614L323.827,331.614z"/>
									</g>
								</g>
							</g>
						</g>
					</g>
				</g>
			</g>
			<path style="fill:#DFC5B2;" d="M711.471,457.642c0,2.048-1.66,3.708-3.708,3.708H45.846c-2.048,0-3.708-1.66-3.708-3.708l0,0
				c0-2.048,1.66-3.708,3.708-3.708h661.917C709.811,453.933,711.471,455.593,711.471,457.642L711.471,457.642z"/>
		</g>
	</g>
</g>
</svg>
