<svg width="1440" height="288" viewBox="0 0 1440 288" fill="none" xmlns="http://www.w3.org/2000/svg">
<path d="M0 256L48 245.3C96 235 192 213 288 208C384 203 480 213 576 234.7C672 256 768 288 864 277.3C960 267 1056 213 1152 208C1248 203 1344 245 1392 266.7L1440 288V0H1392C1344 0 1248 0 1152 0C1056 0 960 0 864 0C768 0 672 0 576 0C480 0 384 0 288 0C192 0 96 0 48 0H0V256Z" fill="url(#paint0_linear_1_11)"/>
<defs>
<linearGradient id="paint0_linear_1_11" x1="-66.5" y1="117.5" x2="1482.5" y2="114" gradientUnits="userSpaceOnUse">
<stop stop-color="#E21818"/>
<stop offset="1" stop-color="#00235B"/>
</linearGradient>
</defs>
</svg>
